<?xml version="1.0" encoding="utf-8"?>
<!-- Generator: Adobe Illustrator 22.0.0, SVG Export Plug-In . SVG Version: 6.00 Build 0)  -->
<svg version="1.1" id="图层_1" xmlns="http://www.w3.org/2000/svg" xmlns:xlink="http://www.w3.org/1999/xlink" x="0px" y="0px"
	 viewBox="0 0 20 20" style="enable-background:new 0 0 20 20;" xml:space="preserve">
<style type="text/css">
	.st0{opacity:0.5;fill:#FFFFFF;}
	.st1{fill:#FFFFFF;}
</style>
<g>
	<path class="st0" d="M8.5,6.3C8.3,6.3,8.2,6.5,8.2,6.7c0.1,0.2,0.2,0.3,0.4,0.2c0.2-0.1,0.3-0.2,0.2-0.4C8.8,6.3,8.6,6.2,8.5,6.3z"
		/>
	<path class="st1" d="M18.3,4.7l-7.7-4.5c-0.3-0.2-0.7-0.2-1,0L1.8,4.6C1.4,4.8,1.2,5.1,1.2,5.4l-0.1,9c0,0.4,0.2,0.7,0.5,0.9
		l7.7,4.5c0.3,0.2,0.7,0.2,1,0l7.8-4.4c0.3-0.2,0.5-0.5,0.5-0.9l0.1-9C18.8,5.2,18.6,4.9,18.3,4.7z M13.1,13.4l-4.2,1.4
		c-0.2,0.1-0.5,0-0.5-0.2L6.6,9.1c0-0.1,0-0.2,0-0.3l1.2-3.3c0.1-0.3,0.4-0.4,0.7-0.2l3,1.9c0.1,0,0.2,0.2,0.2,0.2l1.7,5.4
		C13.4,13.1,13.3,13.3,13.1,13.4z"/>
</g>
</svg>
