<svg id="档案管理" xmlns="http://www.w3.org/2000/svg" xmlns:xlink="http://www.w3.org/1999/xlink" viewBox="0 0 18 19"><defs><style>.cls-1{fill:none;}.cls-2{clip-path:url(#clip-path);}.cls-3,.cls-4{fill:#fff;}.cls-4{opacity:0.5;}</style><clipPath id="clip-path" transform="translate(-286.1 -202.6)"><rect class="cls-1" x="285.1" y="202.02" width="20" height="20"/></clipPath></defs><title>档案管理-白</title><g class="cls-2"><path class="cls-3" d="M295.34,205.68v1a.49.49,0,0,1,.26.43.5.5,0,1,1-.76-.42v-1c-4.85,0-8.74-1.3-8.74-2.85V220.6a1,1,0,0,0,1,1h16a1,1,0,0,0,1-1V202.83C304.1,204.38,300.2,205.64,295.34,205.68Zm3.26,11h-7v-1h7Zm0-2.31h-7v-1h7Zm0-2.32h-7v-1h7Z" transform="translate(-286.1 -202.6)"/><path class="cls-4" d="M304.06,202.6H286.14a.93.93,0,0,0,0,.23c0,1.55,3.89,2.81,8.74,2.85v-1.05a.5.5,0,1,1,.76-.47.48.48,0,0,1-.26.48v1c4.86,0,8.76-1.3,8.76-2.85A.93.93,0,0,0,304.06,202.6Z" transform="translate(-286.1 -202.6)"/></g></svg>