<?xml version="1.0" encoding="utf-8"?>
<!-- Generator: Adobe Illustrator 22.0.0, SVG Export Plug-In . SVG Version: 6.00 Build 0)  -->
<svg version="1.1" id="图层_1" xmlns="http://www.w3.org/2000/svg" xmlns:xlink="http://www.w3.org/1999/xlink" x="0px" y="0px"
	 viewBox="0 0 20 20" style="enable-background:new 0 0 20 20;" xml:space="preserve">
<style type="text/css">
	.st0{fill:#606D85;}
	.st1{opacity:0.5;fill:#606D85;}
</style>
<g>
	<path class="st0" d="M0,1v17l6.7,1.4V2.6L0,1z M4.7,14.8l-3.6-0.9l0-0.6l3.6,0.9V14.8z M4.7,13.5l-3.6-0.9l0-0.6l3.6,0.9V13.5z
		 M4.7,12.2l-3.6-0.9l0-0.6l3.6,0.9V12.2z M4.7,5.7L1.1,4.8l0-0.6l3.6,0.9V5.7z"/>
	<polygon class="st1" points="6.7,19.4 13.3,18 13.3,1 6.7,2.6 	"/>
	<polygon class="st0" points="20,19.4 13.3,18 13.3,1 20,2.6 	"/>
</g>
</svg>
