<?xml version="1.0" encoding="utf-8"?>
<!-- Generator: Adobe Illustrator 22.0.0, SVG Export Plug-In . SVG Version: 6.00 Build 0)  -->
<svg version="1.1" id="图层_1" xmlns="http://www.w3.org/2000/svg" xmlns:xlink="http://www.w3.org/1999/xlink" x="0px" y="0px"
	 viewBox="0 0 20 20" style="enable-background:new 0 0 20 20;" xml:space="preserve">
<style type="text/css">
	.st0{fill:#3F78FF;}
	.st1{opacity:0.5;fill:#3F78FF;}
</style>
<g>
	<path class="st0" d="M0,0.8v17l6.7,1.4V2.4L0,0.8z M4.7,14.6l-3.6-0.9l0-0.6L4.7,14V14.6z M4.7,13.3l-3.6-0.9l0-0.6l3.6,0.9V13.3z
		 M4.7,12l-3.6-0.9l0-0.6l3.6,0.9V12z M4.7,5.5L1.1,4.6l0-0.6l3.6,0.9V5.5z"/>
	<polygon class="st1" points="6.7,19.2 13.3,17.8 13.3,0.8 6.7,2.4 	"/>
	<polygon class="st0" points="20,19.2 13.3,17.8 13.3,0.8 20,2.4 	"/>
</g>
</svg>
