<svg id="图层_2" data-name="图层 2" xmlns="http://www.w3.org/2000/svg" xmlns:xlink="http://www.w3.org/1999/xlink" viewBox="0 0 18.97 19.68"><defs><style>.cls-1{fill:none;}.cls-2{clip-path:url(#clip-path);}.cls-3,.cls-4{fill:#fff;}.cls-3{opacity:0.45;}</style><clipPath id="clip-path" transform="translate(-345.58 -197.49)"><rect class="cls-1" x="345.06" y="197.33" width="20" height="20"/></clipPath></defs><title>联系人-白</title><g class="cls-2"><path class="cls-3" d="M347.92,212.94a.5.5,0,0,1,0-1h1v-2.71h-1a.5.5,0,0,1-.5-.5.5.5,0,0,1,.5-.5h1v-2.7h-1a.5.5,0,0,1-.5-.5.5.5,0,0,1,.5-.5h1v-2.71h-1a.5.5,0,0,1,0-1h1v-2.23h-2.33a1,1,0,0,0-1,1V215a1,1,0,0,0,1,1h2.33v-3Z" transform="translate(-345.58 -197.49)"/><path class="cls-4" d="M363.55,197.49H349.91a1,1,0,0,0-1,1v2.33h1.2a.5.5,0,0,1,0,1h-1.2v2.71h1.2a.5.5,0,0,1,.5.5.5.5,0,0,1-.5.5h-1.2v2.7h1.2a.5.5,0,0,1,.5.5.5.5,0,0,1-.5.5h-1.2v2.71h1.2a.5.5,0,0,1,0,1h-1.2v3.23a1,1,0,0,0,1,1h13.64a1,1,0,0,0,1-1V198.49A1,1,0,0,0,363.55,197.49Zm-10.06,13.88a3.51,3.51,0,0,1,2.75-3.42,2.46,2.46,0,1,1,1.53,0,3.51,3.51,0,0,1,2.75,3.42Z" transform="translate(-345.58 -197.49)"/><path class="cls-3" d="M357.77,208a2.47,2.47,0,1,0-1.53,0,3.51,3.51,0,0,0-2.75,3.42h7A3.51,3.51,0,0,0,357.77,208Z" transform="translate(-345.58 -197.49)"/></g></svg>