<?xml version="1.0" encoding="utf-8"?>
<!-- Generator: Adobe Illustrator 22.0.0, SVG Export Plug-In . SVG Version: 6.00 Build 0)  -->
<svg version="1.1" id="图层_1" xmlns="http://www.w3.org/2000/svg" xmlns:xlink="http://www.w3.org/1999/xlink" x="0px" y="0px"
	 viewBox="0 0 20 20" style="enable-background:new 0 0 20 20;" xml:space="preserve">
<style type="text/css">
	.st0{opacity:0.5;fill:#606D85;}
	.st1{fill:#606D85;}
</style>
<g>
	<path class="st0" d="M3.4,15.4c-0.3,0-0.5-0.2-0.5-0.5c0-0.3,0.2-0.5,0.5-0.5h0.9v-2.6H3.4c-0.3,0-0.5-0.2-0.5-0.5
		c0-0.3,0.2-0.5,0.5-0.5h0.9V8.3H3.4C3.2,8.3,3,8.1,3,7.8c0-0.3,0.2-0.5,0.5-0.5h0.9V4.7H3.4C3.2,4.7,3,4.5,3,4.2s0.2-0.5,0.5-0.5
		h0.9V1.6H2.2c-0.5,0-0.9,0.4-0.9,1v14.7c0,0.5,0.4,1,0.9,1h2.1v-2.9H3.4z"/>
	<path class="st1" d="M17.8,0.6H5.3c-0.5,0-0.9,0.4-0.9,1v2.2h1.1c0.3,0,0.5,0.2,0.5,0.5S5.7,4.7,5.4,4.7H4.3v2.6h1.1
		c0.3,0,0.5,0.2,0.5,0.5c0,0.3-0.2,0.5-0.5,0.5H4.3v2.6h1.1c0.3,0,0.5,0.2,0.5,0.5c0,0.3-0.2,0.5-0.5,0.5H4.3v2.6h1.1
		c0.3,0,0.5,0.2,0.5,0.5c0,0.3-0.2,0.5-0.5,0.5H4.3v3.1c0,0.5,0.4,1,0.9,1h12.5c0.5,0,0.9-0.4,0.9-1v-17C18.7,1,18.3,0.6,17.8,0.6z
		 M8.6,13.9c0-1.6,1.1-3,2.5-3.3c-0.9-0.3-1.6-1.2-1.6-2.2c0-1.3,1-2.4,2.3-2.4C13,6,14,7.1,14,8.4c0,1-0.7,1.9-1.6,2.2
		c1.4,0.3,2.5,1.7,2.5,3.3H8.6z"/>
	<path class="st0" d="M12.5,10.6c0.9-0.3,1.6-1.2,1.6-2.2C14,7.1,13,6,11.8,6c-1.2,0-2.3,1.1-2.3,2.4c0,1,0.7,1.9,1.6,2.2
		c-1.4,0.3-2.5,1.7-2.5,3.3H15C15,12.3,13.9,10.9,12.5,10.6z"/>
</g>
</svg>
