<?xml version="1.0" encoding="utf-8"?>
<!-- Generator: Adobe Illustrator 22.0.0, SVG Export Plug-In . SVG Version: 6.00 Build 0)  -->
<svg version="1.1" id="图层_1" xmlns="http://www.w3.org/2000/svg" xmlns:xlink="http://www.w3.org/1999/xlink" x="0px" y="0px"
	 viewBox="0 0 20 20" style="enable-background:new 0 0 20 20;" xml:space="preserve">
<style type="text/css">
	.st0{clip-path:url(#SVGID_2_);}
	.st1{opacity:0.5;}
	.st2{fill:#3F78FF;}
	.st3{opacity:0.5;fill:#3F78FF;}
</style>
<g>
	<defs>
		<rect id="SVGID_1_" x="0.7" y="0.4" width="18.4" height="19.2"/>
	</defs>
	<clipPath id="SVGID_2_">
		<use xlink:href="#SVGID_1_"  style="overflow:visible;"/>
	</clipPath>
	<g class="st0">
		<g class="st1">
			<path class="st2" d="M3.3,15.4c-0.3,0-0.5-0.2-0.5-0.5c0-0.3,0.2-0.5,0.5-0.5h0.9v-2.6H3.3c-0.3,0-0.5-0.2-0.5-0.5
				c0-0.3,0.2-0.5,0.5-0.5h0.9V8.3H3.3c-0.3,0-0.5-0.2-0.5-0.5c0-0.3,0.2-0.5,0.5-0.5h0.9V4.7H3.3c-0.3,0-0.5-0.2-0.5-0.5
				s0.2-0.5,0.5-0.5h0.9V1.6H2.1c-0.5,0-0.9,0.4-0.9,1v14.7c0,0.5,0.4,1,0.9,1h2.1v-2.9H3.3z"/>
		</g>
		<g>
			<path class="st2" d="M17.7,0.6H5.2c-0.5,0-0.9,0.4-0.9,1v2.2h1.1c0.3,0,0.5,0.2,0.5,0.5S5.6,4.7,5.3,4.7H4.2v2.6h1.1
				c0.3,0,0.5,0.2,0.5,0.5c0,0.3-0.2,0.5-0.5,0.5H4.2v2.6h1.1c0.3,0,0.5,0.2,0.5,0.5c0,0.3-0.2,0.5-0.5,0.5H4.2v2.6h1.1
				c0.3,0,0.5,0.2,0.5,0.5c0,0.3-0.2,0.5-0.5,0.5H4.2v3.1c0,0.5,0.4,1,0.9,1h12.5c0.5,0,0.9-0.4,0.9-1v-17C18.6,1,18.2,0.6,17.7,0.6
				z M8.4,13.9c0-1.6,1.1-3,2.5-3.3c-0.9-0.3-1.6-1.2-1.6-2.2c0-1.3,1-2.4,2.3-2.4c1.2,0,2.3,1.1,2.3,2.4c0,1-0.7,1.9-1.6,2.2
				c1.4,0.3,2.5,1.7,2.5,3.3H8.4z"/>
		</g>
		<path class="st3" d="M12.4,10.6c0.9-0.3,1.6-1.2,1.6-2.2c0-1.3-1-2.4-2.3-2.4c-1.2,0-2.3,1.1-2.3,2.4c0,1,0.7,1.9,1.6,2.2
			c-1.4,0.3-2.5,1.7-2.5,3.3h6.5C14.9,12.3,13.8,10.9,12.4,10.6z"/>
	</g>
</g>
</svg>
