<svg id="图层_2" data-name="图层 2" xmlns="http://www.w3.org/2000/svg" viewBox="0 0 18.97 19.68"><defs><style>.cls-1{fill:#a8c6ff;}.cls-2{fill:#3f78ff;}.cls-3{fill:none;stroke:#fff;stroke-linecap:round;stroke-linejoin:round;}</style></defs><title>联系人</title><path class="cls-1" d="M1,1.09H3.34a0,0,0,0,1,0,0V18.46a0,0,0,0,1,0,0H1a1,1,0,0,1-1-1V2.09A1,1,0,0,1,1,1.09Z"/><rect class="cls-2" x="3.34" width="15.64" height="19.68" rx="1" ry="1"/><line class="cls-3" x1="2.34" y1="3.83" x2="4.54" y2="3.83"/><line class="cls-3" x1="2.34" y1="7.53" x2="4.54" y2="7.53"/><line class="cls-3" x1="2.34" y1="11.24" x2="4.54" y2="11.24"/><line class="cls-3" x1="2.34" y1="14.95" x2="4.54" y2="14.95"/><circle class="cls-1" cx="11.43" cy="8.13" r="2.46"/><path class="cls-1" d="M353.43,211.37a3.52,3.52,0,0,1,7,0" transform="translate(-345.52 -197.49)"/></svg>