<svg id="图层_2" data-name="图层 2" xmlns="http://www.w3.org/2000/svg" viewBox="0 0 18.64 20.09"><defs><style>.cls-1{fill:#3f78ff;}.cls-2{fill:none;stroke:#fff;stroke-miterlimit:10;}.cls-3{fill:#a8c6ff;}.cls-4{fill:#fff;}</style></defs><title>合同</title><g id="合同"><path class="cls-1" d="M193,209V198.12a.87.87,0,0,0-.87-.87H179.32a.87.87,0,0,0-.87.87v18.35a.87.87,0,0,0,.87.87h11.83A4.39,4.39,0,0,1,193,209Z" transform="translate(-178.45 -197.25)"/><line class="cls-2" x1="2.43" y1="2.94" x2="12.16" y2="2.94"/><line class="cls-2" x1="2.43" y1="7.37" x2="12.16" y2="7.37"/><line class="cls-2" x1="2.43" y1="11.8" x2="7.42" y2="11.8"/><circle class="cls-3" cx="14.71" cy="16.17" r="3.93"/><path class="cls-4" d="M193.58,213.69v0a.48.48,0,0,1-.44-.46.48.48,0,0,1,.29-.43h0a.68.68,0,0,0,.27-.53.7.7,0,1,0-1.39,0,.65.65,0,0,0,.31.56h0a.48.48,0,0,1,.24.4.49.49,0,0,1-.48.47h0a.83.83,0,0,0-.62.79v.25a.35.35,0,0,0,.35.34h1.81a.34.34,0,0,0,.34-.34v-.25A.81.81,0,0,0,193.58,213.69Z" transform="translate(-178.45 -197.25)"/></g></svg>