<svg id="图层_2" data-name="图层 2" xmlns="http://www.w3.org/2000/svg" xmlns:xlink="http://www.w3.org/1999/xlink" viewBox="0 0 18.64 20.09"><defs><style>.cls-1{fill:none;}.cls-2{clip-path:url(#clip-path);}.cls-3,.cls-4{fill:#fff;}.cls-4{opacity:0.45;}</style><clipPath id="clip-path" transform="translate(-177.11 -197.17)"><rect class="cls-1" x="176.43" y="197.22" width="20" height="20"/></clipPath></defs><title>合同-白</title><g class="cls-2"><g id="合同"><path class="cls-3" d="M191.64,208.88V198a.87.87,0,0,0-.87-.87H178a.87.87,0,0,0-.88.87v18.35a.87.87,0,0,0,.88.87h11.82a4.39,4.39,0,0,1,1.83-8.38Zm-12.1-9.27h9.73v1h-9.73Zm5,9.86h-5v-1h5Zm-5-4.43v-1h9.73v1Z" transform="translate(-177.11 -197.17)"/><path class="cls-4" d="M191.83,209.41a3.93,3.93,0,1,0,3.92,3.93A3.93,3.93,0,0,0,191.83,209.41Zm1.07,5.24a.35.35,0,0,1-.35.34h-1.81a.35.35,0,0,1-.35-.34v-.25a.81.81,0,0,1,.62-.78v0a.49.49,0,0,0,.47-.47.45.45,0,0,0-.24-.39v0a.67.67,0,0,1-.31-.56.7.7,0,1,1,1.39,0,.66.66,0,0,1-.27.53h0a.46.46,0,0,0,.16.89v0a.82.82,0,0,1,.66.79Z" transform="translate(-177.11 -197.17)"/></g></g></svg>