<svg id="图层_2" data-name="图层 2" xmlns="http://www.w3.org/2000/svg" viewBox="0 0 20.06 19.82"><defs><style>.cls-1{fill:#a8c6ff;}.cls-2{fill:#3f78ff;}</style></defs><title>工作台</title><path class="cls-1" d="M262.92,198.29h5.85a1,1,0,0,1,1,1v8.92a0,0,0,0,1,0,0h-7.85a0,0,0,0,1,0,0v-8.92A1,1,0,0,1,262.92,198.29Z" transform="translate(-318.64 -77.72) rotate(-22.95)"/><path class="cls-1" d="M273.35,199.88h5.71a0,0,0,0,1,0,0v8.92a1,1,0,0,1-1,1h-3.71a1,1,0,0,1-1-1v-8.92a0,0,0,0,1,0,0Z" transform="translate(190.24 303.71) rotate(-157.05)"/><rect class="cls-2" y="8.01" width="20.06" height="3.88" rx="1" ry="1"/><path class="cls-2" d="M277.45,207.3h-14a.88.88,0,0,0-.88.87v8.24a.89.89,0,0,0,.88.88h14a.89.89,0,0,0,.87-.88v-8.24A.88.88,0,0,0,277.45,207.3Zm-8.66,3.92h-4.87v-.88h4.87Z" transform="translate(-260.43 -197.46)"/><rect class="cls-1" x="272.17" y="199.96" width="0.65" height="4.74" transform="translate(-221.83 -241.08) rotate(9.85)"/><polygon class="cls-1" points="11.56 7.78 11.98 7.25 11.34 7.14 11.56 7.78"/><path class="cls-1" d="M273,199.55a.32.32,0,0,0-.37.26l0,.07.64.12v-.07A.32.32,0,0,0,273,199.55Z" transform="translate(-260.43 -197.46)"/><rect class="cls-1" x="270.01" y="198.65" width="1.67" height="1.11" rx="0.5" ry="0.5" transform="translate(112.96 -318.46) rotate(71.42)"/></svg>