<svg id="图层_2" data-name="图层 2" xmlns="http://www.w3.org/2000/svg" xmlns:xlink="http://www.w3.org/1999/xlink" viewBox="0 0 20.06 19.82"><defs><style>.cls-1{fill:none;}.cls-2{clip-path:url(#clip-path);}.cls-3,.cls-4{fill:#fff;}.cls-3,.cls-5{opacity:0.45;}</style><clipPath id="clip-path" transform="translate(-260.43 -197.46)"><rect class="cls-1" x="260.47" y="197.3" width="20" height="20"/></clipPath></defs><title>工作台-白</title><g class="cls-2"><path class="cls-3" d="M262.92,198.29h5.85a1,1,0,0,1,1,1v8.92a0,0,0,0,1,0,0h-7.85a0,0,0,0,1,0,0v-8.92A1,1,0,0,1,262.92,198.29Z" transform="translate(-318.64 -77.72) rotate(-22.95)"/><path class="cls-3" d="M273.35,199.88h5.71a0,0,0,0,1,0,0v8.92a1,1,0,0,1-1,1h-3.71a1,1,0,0,1-1-1v-8.92a0,0,0,0,1,0,0Z" transform="translate(190.24 303.71) rotate(-157.05)"/><path class="cls-4" d="M279.5,205.48H261.43a1,1,0,0,0-1,1v1.87a1,1,0,0,0,1,1h1.18v7.06a.89.89,0,0,0,.88.88h14a.89.89,0,0,0,.87-.88v-7.06h1.18a1,1,0,0,0,1-1v-1.87A1,1,0,0,0,279.5,205.48Zm-10.71,5.74h-4.87v-.88h4.87Z" transform="translate(-260.43 -197.46)"/><g class="cls-5"><rect class="cls-4" x="272.17" y="199.96" width="0.65" height="4.74" transform="translate(-221.83 -241.08) rotate(9.85)"/><polygon class="cls-4" points="11.56 7.78 11.98 7.25 11.34 7.14 11.56 7.78"/><path class="cls-4" d="M273,199.55a.32.32,0,0,0-.37.26l0,.07.64.12v-.07A.32.32,0,0,0,273,199.55Z" transform="translate(-260.43 -197.46)"/></g><rect class="cls-3" x="270.01" y="198.65" width="1.67" height="1.11" rx="0.5" ry="0.5" transform="translate(112.96 -318.46) rotate(71.42)"/></g></svg>