<svg id="图层_2" data-name="图层 2" xmlns="http://www.w3.org/2000/svg" xmlns:xlink="http://www.w3.org/1999/xlink" viewBox="0 0 20.12 20.05"><defs><style>.cls-1{fill:none;}.cls-2{clip-path:url(#clip-path);}.cls-3{opacity:0.5;}.cls-4{fill:#fff;}.cls-5{opacity:0.45;}</style><clipPath id="clip-path" transform="translate(-148.9 -197.27)"><rect class="cls-1" x="148.93" y="197.3" width="20" height="20"/></clipPath></defs><title>资料库-白</title><g class="cls-2"><g id="资料库"><g class="cls-3"><rect class="cls-4" y="6.38" width="5.23" height="13.67" rx="1" ry="1"/></g><path class="cls-4" d="M161,197.27h-4.11a1,1,0,0,0-1,1v18a1,1,0,0,0,1,1H161a1,1,0,0,0,1-1v-18A1,1,0,0,0,161,197.27Zm-3.3,7.41h2.48v1h-2.48Zm0,6.67h2.48v1h-2.48Zm2.51,4.35h-2.48v-1h2.48Zm0-6.67h-2.48v-1h2.48Zm0-6.68h-2.48v-1h2.48Z" transform="translate(-148.9 -197.27)"/><g class="cls-5"><rect class="cls-4" x="14.89" y="6.38" width="5.23" height="13.67" rx="1" ry="1"/></g></g></g></svg>