<svg id="专家信息" xmlns="http://www.w3.org/2000/svg" xmlns:xlink="http://www.w3.org/1999/xlink" viewBox="0 0 17.4 19"><defs><style>.cls-1{fill:none;}.cls-2{clip-path:url(#clip-path);}.cls-3{fill:#fff;}.cls-4{opacity:0.5;}</style><clipPath id="clip-path" transform="translate(-357.71 -203.09)"><rect class="cls-1" x="356.41" y="202.59" width="20" height="20"/></clipPath></defs><title>专家信息-白</title><g class="cls-2"><path class="cls-3" d="M373.92,203.09H358.66a1,1,0,0,0-1,1v17a1,1,0,0,0,1,1h9v-.33A4.12,4.12,0,0,1,370,218a3.2,3.2,0,0,1-1.54-2.42,3.11,3.11,0,0,1,6.18-.72,3.32,3.32,0,0,1-1.56,3.11,3.26,3.26,0,0,1,1.76,1.61V204.09A1,1,0,0,0,373.92,203.09Zm-8.6,16H359.6v-1h5.72Zm0-4.2H359.6v-1h5.72Zm6.95-4.24H359.6v-1h12.67Zm0-4.23H359.6v-1h12.67Z" transform="translate(-357.71 -203.09)"/><g class="cls-4"><path class="cls-3" d="M371.59,212.53a2.68,2.68,0,1,0,2.68,2.68A2.68,2.68,0,0,0,371.59,212.53Zm1,4a1.12,1.12,0,0,1-2-.05.24.24,0,1,1,.43-.21.67.67,0,0,0,.58.37.64.64,0,0,0,.57-.34.24.24,0,0,1,.33-.1A.24.24,0,0,1,372.59,216.56Z" transform="translate(-357.71 -203.09)"/><path class="cls-3" d="M371.71,218.17h0a3.61,3.61,0,0,0-3.61,3.61v.29h7v-.49A3.41,3.41,0,0,0,371.71,218.17Zm-.13,3.26-.58-.81.34-1.39h0a.26.26,0,0,1-.26-.26v-.11a.26.26,0,0,1,.26-.26h.41a.26.26,0,0,1,.26.26V219a.26.26,0,0,1-.26.26h0l.34,1.39Z" transform="translate(-357.71 -203.09)"/></g></g></svg>