<svg id="专家信息" xmlns="http://www.w3.org/2000/svg" xmlns:xlink="http://www.w3.org/1999/xlink" viewBox="0 0 17.4 19"><defs><style>.cls-1{fill:none;}.cls-2{clip-path:url(#clip-path);}.cls-3{fill:#3f78ff;}.cls-4{opacity:0.5;}</style><clipPath id="clip-path" transform="translate(-334.06 -202.59)"><rect class="cls-1" x="332.77" y="202.09" width="20" height="20"/></clipPath></defs><title>专家信息-蓝</title><g class="cls-2"><path class="cls-3" d="M350.27,202.59H335a1,1,0,0,0-1,1v17a1,1,0,0,0,1,1h9v-.33a4.12,4.12,0,0,1,2.38-3.78,3.17,3.17,0,0,1-1.54-2.42,3.06,3.06,0,0,1,2.7-3.41,3.09,3.09,0,0,1,3.47,2.69,3.32,3.32,0,0,1-1.55,3.11,3.33,3.33,0,0,1,1.76,1.61V203.59A1,1,0,0,0,350.27,202.59Zm-8.6,16H336v-1h5.72Zm0-4.2H336v-1h5.72Zm6.95-4.24H336v-1h12.67Zm0-4.23H336v-1h12.67Z" transform="translate(-334.06 -202.59)"/><g class="cls-4"><path class="cls-3" d="M348,212a2.68,2.68,0,1,0,2.68,2.68A2.68,2.68,0,0,0,348,212Zm1,4a1.13,1.13,0,0,1-2-.05.24.24,0,0,1,.11-.32.25.25,0,0,1,.33.11.64.64,0,0,0,.58.37.66.66,0,0,0,.57-.34.23.23,0,0,1,.32-.1A.24.24,0,0,1,349,216.06Z" transform="translate(-334.06 -202.59)"/><path class="cls-3" d="M348.06,217.67h0a3.61,3.61,0,0,0-3.6,3.61v.29h7v-.49A3.41,3.41,0,0,0,348.06,217.67Zm-.12,3.26-.59-.81.34-1.39h0a.26.26,0,0,1-.26-.26v-.11a.26.26,0,0,1,.26-.26h.41a.26.26,0,0,1,.26.26v.11a.26.26,0,0,1-.26.26h0l.34,1.39Z" transform="translate(-334.06 -202.59)"/></g></g></svg>