<?xml version="1.0" encoding="utf-8"?>
<!-- Generator: Adobe Illustrator 22.0.0, SVG Export Plug-In . SVG Version: 6.00 Build 0)  -->
<svg version="1.1" id="图层_1" xmlns="http://www.w3.org/2000/svg" xmlns:xlink="http://www.w3.org/1999/xlink" x="0px" y="0px"
	 viewBox="0 0 20 20" style="enable-background:new 0 0 20 20;" xml:space="preserve">
<style type="text/css">
	.st0{opacity:0.5;fill:#3F78FF;}
	.st1{fill:#3F78FF;}
</style>
<g>
	<path class="st0" d="M14.4,5.3c0,2.8-2,5-4.4,5s-4.4-2.2-4.4-5c0-0.5,0.1-0.9,0.2-1.4l4.1,1.2l4.3-1.3C14.3,4.4,14.4,4.9,14.4,5.3z
		"/>
	<path class="st1" d="M10,14.9H9.8c-0.5,0-1-0.4-1-1v-1.1c0-0.5,0.4-1,1-1H10c0.5,0,1,0.4,1,1V14C10.9,14.5,10.5,14.9,10,14.9z"/>
	<path class="st1" d="M18.2,16.2c0-2.2-2.2-4.2-5.3-4.9c0.1,0.3,0.2,0.6,0.2,0.9v1.2c0,1.6-1.3,3-3,3H9.8c-1.6,0-3-1.3-3-3v-1.2
		c0-0.3,0-0.6,0.1-0.9c-3,0.8-5.1,2.7-5.1,4.9c0,0.1,0,0.2,0,0.3c0,0.1,0,0.2,0,0.3v0.1c0,1.7,1.4,3.1,3.1,3.1h10.2
		c1.7,0,3.1-1.4,3.1-3.1v-0.1c0-0.1,0-0.2,0-0.3C18.2,16.4,18.2,16.3,18.2,16.2z"/>
	<polygon class="st1" points="17.2,2.1 10,4.1 2.8,2.1 10,0 	"/>
	<polygon class="st1" points="5.8,3 10,4.2 14.2,3 14.2,3.8 9.9,5.1 5.8,3.8 	"/>
	<rect x="16.8" y="2" class="st1" width="0.3" height="4.2"/>
	<rect x="16.4" y="6.2" class="st1" width="1" height="1.5"/>
</g>
</svg>
