<svg id="吐槽角" xmlns="http://www.w3.org/2000/svg" xmlns:xlink="http://www.w3.org/1999/xlink" viewBox="0 0 20 19.29"><defs><style>.cls-1{fill:none;}.cls-2{clip-path:url(#clip-path);}.cls-3,.cls-5{fill:#fff;}.cls-4,.cls-5{opacity:0.5;}</style><clipPath id="clip-path" transform="translate(-398.82 -282.28)"><rect class="cls-1" x="398.82" y="281.69" width="20" height="20"/></clipPath></defs><title>吐槽角-白</title><g class="cls-2"><path class="cls-3" d="M417.83,289.79h-18a1,1,0,0,0-1,1v1.87a1,1,0,0,0,1,1H401v7a.88.88,0,0,0,.87.87h13.91a.88.88,0,0,0,.87-.87v-7h1.18a1,1,0,0,0,1-1v-1.87A1,1,0,0,0,417.83,289.79Zm-10.67,5.73H402.3v-.87h4.86Z" transform="translate(-398.82 -282.28)"/><g class="cls-4"><path class="cls-3" d="M406.69,287.08l-3.24-.65a.41.41,0,0,1-.31-.32l-.68-3.24a.32.32,0,0,1,0-.14.42.42,0,0,0-.12.08l-2.5,2.51a.37.37,0,0,0,0,.52l3.89,3.87a.37.37,0,0,0,.52,0l2.5-2.51a.42.42,0,0,0,.08-.12Z" transform="translate(-398.82 -282.28)"/><path class="cls-5" d="M402.47,282.71a.43.43,0,0,0,0,.16l.68,3.24a.41.41,0,0,0,.31.32l3.24.65h.17Zm1,3.55a.18.18,0,0,1-.21-.15.19.19,0,0,1,.15-.22.18.18,0,0,1,.21.15A.19.19,0,0,1,403.51,286.26Z" transform="translate(-398.82 -282.28)"/></g><g class="cls-4"><path class="cls-3" d="M411.55,284.63l-.48-1.07a.13.13,0,0,1,0-.16l.8-.87s0,0,.05,0l-.05,0-1.25-.2a.13.13,0,0,0-.15.11l-.31,1.94a.12.12,0,0,0,.11.15l1.25.2h0Z" transform="translate(-398.82 -282.28)"/><path class="cls-5" d="M411.94,282.49l-.05,0-.8.87a.13.13,0,0,0,0,.16l.48,1.07,0,.05Zm-.81,1.05a.07.07,0,0,1,0-.1.08.08,0,0,1,.09,0,.07.07,0,0,1,0,.1A.07.07,0,0,1,411.13,283.54Z" transform="translate(-398.82 -282.28)"/></g><g class="cls-4"><path class="cls-3" d="M414.49,292.05l-.82-.09.57-.6,1.84-.67,1.79-2.13a.35.35,0,0,0,0-.48L414.18,285a.35.35,0,0,0-.48,0l-3.91,4.64a.34.34,0,0,0,0,.48l3.65,3.07a.34.34,0,0,0,.48,0l1.16-1.38Zm-.57-5.67,1.3,1.1-.22.26-1.3-1.1Zm-.88,1.05,2.6,2.19-.22.26-2.6-2.19Zm-.88,1,2.6,2.19-.21.26-2.61-2.19Z" transform="translate(-398.82 -282.28)"/><g class="cls-4"><rect class="cls-3" x="415.56" y="289.61" width="0.55" height="3.11" transform="translate(145.06 -482.33) rotate(69.61)"/><rect class="cls-3" x="417.32" y="290.34" width="0.55" height="0.36" transform="translate(145.6 -484.41) rotate(69.61)"/><polygon class="cls-3" points="15.45 9.18 15.03 9.63 15.65 9.69 15.45 9.18"/></g></g><g class="cls-4"><path class="cls-3" d="M409.73,287.58l-.23.21,0-.31.25-.69-.19-1a.12.12,0,0,0-.14-.1l-1.77.32a.13.13,0,0,0-.11.15l.41,2.25a.12.12,0,0,0,.15.1l1.77-.31a.13.13,0,0,0,.1-.15l-.12-.67Zm-1.79-1.2.63-.12,0,.13-.64.11Zm.09.5,1.27-.22,0,.12-1.27.23Zm.09.51,1.27-.23,0,.13-1.26.22Z" transform="translate(-398.82 -282.28)"/><g class="cls-4"><rect class="cls-3" x="409.69" y="286.39" width="0.21" height="1.17" transform="matrix(0.94, 0.33, -0.33, 0.94, -281.02, -401.54)"/><rect class="cls-3" x="409.92" y="286.24" width="0.21" height="0.13" transform="translate(-281.23 -401.65) rotate(19.29)"/><polygon class="cls-3" points="10.68 5.22 10.71 5.45 10.87 5.29 10.68 5.22"/></g></g></g></svg>