<svg id="吐槽角" xmlns="http://www.w3.org/2000/svg" xmlns:xlink="http://www.w3.org/1999/xlink" viewBox="0 0 20 19.29"><defs><style>.cls-1{fill:none;}.cls-2{clip-path:url(#clip-path);}.cls-3,.cls-5{fill:#3f78ff;}.cls-4,.cls-5{opacity:0.5;}</style><clipPath id="clip-path" transform="translate(-399.26 -243.67)"><rect class="cls-1" x="399.26" y="243.08" width="20" height="20"/></clipPath></defs><title>吐槽角-蓝</title><g class="cls-2"><path class="cls-3" d="M418.26,251.18h-18a1,1,0,0,0-1,1v1.87a1,1,0,0,0,1,1h1.17v7a.88.88,0,0,0,.87.87h13.92a.88.88,0,0,0,.87-.87v-7h1.17a1,1,0,0,0,1-1v-1.87A1,1,0,0,0,418.26,251.18Zm-10.67,5.73h-4.85V256h4.85Z" transform="translate(-399.26 -243.67)"/><g class="cls-4"><path class="cls-3" d="M407.13,248.47l-3.24-.65a.41.41,0,0,1-.31-.32l-.68-3.24a.32.32,0,0,1,0-.14.25.25,0,0,0-.12.08l-2.5,2.51a.37.37,0,0,0,0,.52l3.89,3.87a.37.37,0,0,0,.52,0l2.5-2.52a.44.44,0,0,0,.08-.11Z" transform="translate(-399.26 -243.67)"/><path class="cls-5" d="M402.91,244.1a.42.42,0,0,0,0,.16l.68,3.24a.41.41,0,0,0,.31.32l3.24.65h.17Zm1,3.54a.19.19,0,0,1-.22-.15.19.19,0,0,1,.15-.21.19.19,0,0,1,.22.15A.18.18,0,0,1,404,247.64Z" transform="translate(-399.26 -243.67)"/></g><g class="cls-4"><path class="cls-3" d="M412,246l-.48-1.07a.13.13,0,0,1,0-.16l.8-.87a.05.05,0,0,1,0,0l0,0-1.25-.2a.14.14,0,0,0-.16.11l-.31,1.93a.14.14,0,0,0,.11.16l1.25.2h0Z" transform="translate(-399.26 -243.67)"/><path class="cls-5" d="M412.38,243.88l-.05,0-.8.87a.13.13,0,0,0,0,.16L412,246a.1.1,0,0,0,0,0Zm-.81,1.05a.07.07,0,0,1,0-.1.07.07,0,0,1,.09,0,.06.06,0,0,1,0,.09A.06.06,0,0,1,411.57,244.93Z" transform="translate(-399.26 -243.67)"/></g><g class="cls-4"><path class="cls-3" d="M414.93,253.44l-.83-.09.58-.6,1.83-.67,1.8-2.13a.34.34,0,0,0-.05-.48l-3.64-3.07a.34.34,0,0,0-.48,0l-3.91,4.64a.35.35,0,0,0,0,.48l3.65,3.07a.35.35,0,0,0,.48,0l1.16-1.38Zm-.58-5.67,1.3,1.1-.21.26-1.31-1.1Zm-.87,1,2.6,2.2-.22.26-2.6-2.19Zm-.88,1.05,2.6,2.19-.22.26-2.6-2.19Z" transform="translate(-399.26 -243.67)"/><g class="cls-4"><rect class="cls-3" x="415.99" y="251" width="0.55" height="3.11" transform="translate(108.72 -469.29) rotate(69.61)"/><rect class="cls-3" x="417.76" y="251.72" width="0.55" height="0.36" transform="translate(109.25 -471.37) rotate(69.61)"/><polygon class="cls-3" points="15.45 9.18 15.03 9.63 15.65 9.69 15.45 9.18"/></g></g><g class="cls-4"><path class="cls-3" d="M410.16,249l-.22.22,0-.31.25-.69-.19-1a.13.13,0,0,0-.15-.1l-1.77.32a.13.13,0,0,0-.1.15l.41,2.25a.11.11,0,0,0,.14.1l1.77-.32a.12.12,0,0,0,.11-.14l-.12-.67Zm-1.78-1.19.63-.12,0,.13-.63.11Zm.09.5,1.26-.23,0,.13-1.27.23Zm.09.51,1.26-.23,0,.13-1.27.22Z" transform="translate(-399.26 -243.67)"/><g class="cls-4"><rect class="cls-3" x="410.12" y="247.78" width="0.21" height="1.17" transform="matrix(0.94, 0.33, -0.33, 0.94, -294.19, -365.24)"/><rect class="cls-3" x="410.36" y="247.63" width="0.21" height="0.13" transform="translate(-294.39 -365.35) rotate(19.29)"/><polygon class="cls-3" points="10.68 5.22 10.71 5.45 10.87 5.29 10.68 5.22"/></g></g></g></svg>