<?xml version="1.0" encoding="utf-8"?>
<!-- Generator: Adobe Illustrator 22.0.0, SVG Export Plug-In . SVG Version: 6.00 Build 0)  -->
<svg version="1.1" id="图层_1" xmlns="http://www.w3.org/2000/svg" xmlns:xlink="http://www.w3.org/1999/xlink" x="0px" y="0px"
	 viewBox="0 0 20 20" style="enable-background:new 0 0 20 20;" xml:space="preserve">
<style type="text/css">
	.st0{fill:#606D85;}
	.st1{opacity:0.5;}
	.st2{opacity:0.5;fill:#606D85;}
</style>
<g>
	<g>
		<path class="st0" d="M19,7.9h-18c-0.5,0-1,0.4-1,1v1.9c0,0.5,0.4,1,1,1h1.2v7c0,0.5,0.4,0.9,0.9,0.9h13.9c0.5,0,0.9-0.4,0.9-0.9
			v-7H19c0.5,0,1-0.4,1-1V8.9C20,8.3,19.5,7.9,19,7.9z M8.3,13.6H3.4v-0.9h4.9V13.6z"/>
	</g>
	<g class="st1">
		<path class="st0" d="M7.8,5.2L4.6,4.5c-0.2,0-0.3-0.2-0.3-0.3L3.6,0.9c0,0,0-0.1,0-0.1c0,0-0.1,0-0.1,0.1L1,3.4
			C0.8,3.5,0.8,3.8,1,3.9l3.9,3.9c0.1,0.1,0.4,0.1,0.5,0l2.5-2.5c0,0,0.1-0.1,0.1-0.1C7.9,5.2,7.9,5.2,7.8,5.2z"/>
		<path class="st2" d="M3.6,0.8c0,0.1,0,0.1,0,0.2l0.7,3.2c0,0.2,0.2,0.3,0.3,0.3l3.2,0.7c0.1,0,0.1,0,0.2,0L3.6,0.8z M4.6,4.3
			c-0.1,0-0.2-0.1-0.2-0.2C4.4,4.1,4.5,4,4.6,4C4.7,4,4.8,4,4.8,4.1C4.8,4.2,4.7,4.3,4.6,4.3z"/>
	</g>
	<g class="st1">
		<path class="st0" d="M12.7,2.7l-0.5-1.1c0-0.1,0-0.1,0-0.2L13,0.6c0,0,0,0,0,0c0,0,0,0,0,0l-1.3-0.2c-0.1,0-0.1,0-0.2,0.1
			l-0.3,1.9c0,0.1,0,0.1,0.1,0.2L12.7,2.7C12.7,2.8,12.7,2.8,12.7,2.7C12.7,2.7,12.7,2.7,12.7,2.7z"/>
		<path class="st2" d="M13.1,0.6C13.1,0.6,13,0.6,13.1,0.6l-0.8,0.9c0,0,0,0.1,0,0.2l0.5,1.1c0,0,0,0,0,0L13.1,0.6z M12.3,1.6
			C12.2,1.6,12.2,1.5,12.3,1.6C12.3,1.5,12.3,1.5,12.3,1.6C12.4,1.5,12.4,1.6,12.3,1.6C12.3,1.6,12.3,1.6,12.3,1.6z"/>
	</g>
	<g class="st1">
		<path class="st0" d="M15.6,10.1L14.8,10l0.6-0.6l1.8-0.7L19,6.6c0.1-0.1,0.1-0.4,0-0.5l-3.6-3.1C15.2,3,15,3,14.8,3.1l-3.9,4.6
			c-0.1,0.1-0.1,0.4,0,0.5l3.6,3.1c0.1,0.1,0.4,0.1,0.5,0l1.2-1.4L15.6,10.1z M15,4.5l1.3,1.1l-0.2,0.3l-1.3-1.1L15,4.5z M14.2,5.5
			l2.6,2.2L16.6,8l-2.6-2.2L14.2,5.5z M13.3,6.5l2.6,2.2L15.7,9l-2.6-2.2L13.3,6.5z"/>
		<g class="st1">
			<rect x="16.7" y="7.7" transform="matrix(0.3484 0.9373 -0.9373 0.3484 19.7193 -9.872)" class="st0" width="0.5" height="3.1"/>
			
				<rect x="18.4" y="8.4" transform="matrix(0.3484 0.9373 -0.9373 0.3484 20.2537 -11.951)" class="st0" width="0.5" height="0.4"/>
			<polygon class="st0" points="15.4,9.5 15,10 15.6,10 			"/>
		</g>
	</g>
	<g class="st1">
		<path class="st0" d="M10.9,5.7l-0.2,0.2l0-0.3l0.2-0.7l-0.2-1c0-0.1-0.1-0.1-0.1-0.1L8.7,4c-0.1,0-0.1,0.1-0.1,0.1L9,6.4
			c0,0.1,0.1,0.1,0.1,0.1L11,6.2c0.1,0,0.1-0.1,0.1-0.1l-0.1-0.7L10.9,5.7z M9.1,4.5l0.6-0.1l0,0.1L9.1,4.6L9.1,4.5z M9.2,5l1.3-0.2
			l0,0.1L9.2,5.1L9.2,5z M9.3,5.5l1.3-0.2l0,0.1L9.3,5.6L9.3,5.5z"/>
		<g class="st1">
			<rect x="10.8" y="4.5" transform="matrix(0.9439 0.3303 -0.3303 0.9439 2.2819 -3.3237)" class="st0" width="0.2" height="1.2"/>
			<rect x="11.1" y="4.3" transform="matrix(0.9439 0.3303 -0.3303 0.9439 2.0739 -3.4387)" class="st0" width="0.2" height="0.1"/>
			<polygon class="st0" points="10.6,5.6 10.7,5.8 10.8,5.6 			"/>
		</g>
	</g>
</g>
</svg>
