<?xml version="1.0" encoding="utf-8"?>
<!-- Generator: Adobe Illustrator 22.0.0, SVG Export Plug-In . SVG Version: 6.00 Build 0)  -->
<svg version="1.1" id="图层_1" xmlns="http://www.w3.org/2000/svg" xmlns:xlink="http://www.w3.org/1999/xlink" x="0px" y="0px"
	 viewBox="0 0 20 20" style="enable-background:new 0 0 20 20;" xml:space="preserve">
<style type="text/css">
	.st0{opacity:0.5;fill:#606D85;}
	.st1{fill:#606D85;}
</style>
<g>
	<path class="st0" d="M4.6,4h12.6V1.5c0-0.6-0.4-1-1-1h-14c-0.6,0-1,0.4-1,1v15c0,0.6,0.4,1,1,1h2.4V4z"/>
	<path class="st1" d="M17.8,2.7H4.6c-0.6,0-1,0.4-1,1v14.8c0,0.6,0.4,1,1,1h13.3c0.6,0,1-0.4,1-1V3.7C18.8,3.1,18.4,2.7,17.8,2.7z
		 M15.2,4.9c0.4,0,0.8,0.4,0.8,0.8s-0.4,0.8-0.8,0.8s-0.8-0.4-0.8-0.8S14.7,4.9,15.2,4.9z M13.7,7.3c0-0.3,0.3-0.6,0.6-0.6h1.9
		c0.3,0,0.6,0.3,0.6,0.6v0.2c0,0.3-0.3,0.6-0.6,0.6h-1.9c-0.3,0-0.6-0.3-0.6-0.6V7.3z M5.2,5.2h5v1h-5V5.2z M17.2,17.5h-12v-1h12
		V17.5z M17.2,14h-12v-1h12V14z M17.2,10.5h-12v-1h12V10.5z"/>
</g>
</svg>
