<svg id="人事管理" xmlns="http://www.w3.org/2000/svg" xmlns:xlink="http://www.w3.org/1999/xlink" viewBox="0 0 17.63 19"><defs><style>.cls-1{fill:none;}.cls-2{clip-path:url(#clip-path);}.cls-3,.cls-4{fill:#fff;}.cls-3{opacity:0.5;}</style><clipPath id="clip-path" transform="translate(-181.21 -202.86)"><rect class="cls-1" x="180.02" y="202.36" width="20" height="20"/></clipPath></defs><title>人事管理-白</title><g class="cls-2"><path class="cls-3" d="M184.6,206.32h12.61v-2.46a1,1,0,0,0-1-1h-14a1,1,0,0,0-1,1v15a1,1,0,0,0,1,1h2.39Z" transform="translate(-181.21 -202.86)"/><path class="cls-4" d="M197.83,205H184.58a1,1,0,0,0-1,1v14.84a1,1,0,0,0,1,1h13.25a1,1,0,0,0,1-1V206A1,1,0,0,0,197.83,205Zm-2.62,2.21a.8.8,0,1,1-.8.8A.8.8,0,0,1,195.21,207.23Zm-1.5,2.46a.57.57,0,0,1,.57-.57h1.85a.58.58,0,0,1,.58.57v.16a.57.57,0,0,1-.58.57h-1.85a.56.56,0,0,1-.57-.57Zm-8.5-2.16h5v1h-5Zm12,12.33h-12v-1h12Zm0-3.5h-12v-1h12Zm0-3.5h-12v-1h12Z" transform="translate(-181.21 -202.86)"/></g></svg>