<svg id="人事管理" xmlns="http://www.w3.org/2000/svg" xmlns:xlink="http://www.w3.org/1999/xlink" viewBox="0 0 17.63 19"><defs><style>.cls-1{fill:none;}.cls-2{clip-path:url(#clip-path);}.cls-3,.cls-4{fill:#3f78ff;}.cls-3{opacity:0.5;}</style><clipPath id="clip-path" transform="translate(-155.02 -202.56)"><rect class="cls-1" x="153.5" y="202.09" width="20" height="20"/></clipPath></defs><title>人事管理-蓝</title><g class="cls-2"><path class="cls-3" d="M158.41,206H171v-2.46a1,1,0,0,0-1-1H156a1,1,0,0,0-1,1v15a1,1,0,0,0,1,1h2.39Z" transform="translate(-155.02 -202.56)"/><path class="cls-4" d="M171.64,204.73H158.39a1,1,0,0,0-1,1v14.83a1,1,0,0,0,1,1h13.25a1,1,0,0,0,1-1V205.73A1,1,0,0,0,171.64,204.73Zm-2.62,2.2a.8.8,0,1,1-.8.8A.8.8,0,0,1,169,206.93Zm-1.5,2.47a.56.56,0,0,1,.57-.57H170a.57.57,0,0,1,.57.57v.16a.58.58,0,0,1-.57.57h-1.86a.57.57,0,0,1-.57-.57Zm-8.5-2.17h5v1h-5Zm12,12.33H159v-1h12Zm0-3.5H159v-1h12Zm0-3.5H159v-1h12Z" transform="translate(-155.02 -202.56)"/></g></svg>