<?xml version="1.0" encoding="utf-8"?>
<!-- Generator: Adobe Illustrator 22.0.0, SVG Export Plug-In . SVG Version: 6.00 Build 0)  -->
<svg version="1.1" id="图层_1" xmlns="http://www.w3.org/2000/svg" xmlns:xlink="http://www.w3.org/1999/xlink" x="0px" y="0px"
	 viewBox="0 0 20 20" style="enable-background:new 0 0 20 20;" xml:space="preserve">
<style type="text/css">
	.st0{fill:#3F78FF;}
	.st1{opacity:0.5;fill:#3F78FF;}
</style>
<g>
	<path class="st0" d="M17.5,1.8H17H3.7C2.7,1.8,2,1.4,2,1v17.9c0,0.5,0.4,1,0.9,1h14.6c0.5,0,0.9-0.4,0.9-1V2.7
		C18.4,2.2,18,1.8,17.5,1.8z M3.2,5h6.2v1H3.2V5z M3.2,7.9H14v1H3.2V7.9z M9.4,11.8H3.2v-1h6.2V11.8z M15.9,17.8
		C15.9,17.8,15.9,17.9,15.9,17.8L11,17.9c0,0-0.1,0-0.1-0.1v-0.3c0-0.1,0-0.1,0.1-0.1h4.8c0,0,0.1,0,0.1,0.1V17.8z M15.9,17.2
		C15.9,17.2,15.9,17.3,15.9,17.2L11,17.3c0,0-0.1,0-0.1-0.1v-0.7c0-0.2,0.1-0.3,0.3-0.3h1.1c0.1,0,0.2-0.1,0.3-0.1
		c0.2-0.3,0.2-0.8-0.2-1.2c-0.2-0.3-0.3-0.6-0.3-0.9c0-0.8,0.6-1.4,1.4-1.4c0.7,0,1.4,0.6,1.4,1.4c0,0.4-0.1,0.7-0.3,0.9
		c-0.3,0.5-0.4,1-0.2,1.2c0.1,0.1,0.2,0.1,0.3,0.1h1.1c0.1,0,0.3,0.1,0.3,0.3V17.2z"/>
	<path class="st1" d="M17.4,1.1c0-0.5-0.4-1-0.9-1H3.7C2.8,0.2,2,0.5,2,1s0.8,0.8,1.7,0.8h13.7V1.1z"/>
</g>
</svg>
