<?xml version="1.0" encoding="utf-8"?>
<!-- Generator: Adobe Illustrator 22.0.0, SVG Export Plug-In . SVG Version: 6.00 Build 0)  -->
<svg version="1.1" id="图层_1" xmlns="http://www.w3.org/2000/svg" xmlns:xlink="http://www.w3.org/1999/xlink" x="0px" y="0px"
	 viewBox="0 0 20 20" style="enable-background:new 0 0 20 20;" xml:space="preserve">
<style type="text/css">
	.st0{fill:#606D85;}
	.st1{opacity:0.5;fill:#606D85;}
</style>
<g>
	<path class="st0" d="M17.4,1.6h-0.5H3.4c-0.9,0-1.7-0.4-1.7-0.8V19c0,0.6,0.4,1,0.9,1h14.8c0.5,0,0.9-0.4,0.9-1V2.6
		C18.3,2.1,17.9,1.6,17.4,1.6z M2.9,5h6.3v1H2.9V5z M2.9,7.9h11v1h-11V7.9z M9.1,11.8H2.9v-1h6.3V11.8z M15.8,17.9
		C15.8,18,15.8,18,15.8,17.9l-5,0.1c0,0-0.1,0-0.1-0.1v-0.3c0-0.1,0-0.1,0.1-0.1h4.9c0,0,0.1,0,0.1,0.1V17.9z M15.8,17.3
		C15.8,17.4,15.8,17.4,15.8,17.3l-5,0.1c0,0-0.1,0-0.1-0.1v-0.7c0-0.2,0.1-0.3,0.3-0.3H12c0.1,0,0.2-0.1,0.3-0.1
		c0.2-0.3,0.2-0.8-0.2-1.2c-0.2-0.3-0.3-0.6-0.3-0.9c0-0.8,0.6-1.5,1.4-1.5s1.4,0.7,1.4,1.5c0,0.4-0.1,0.7-0.3,0.9
		c-0.3,0.5-0.4,1-0.2,1.2c0.1,0.1,0.2,0.1,0.3,0.1h1.1c0.1,0,0.3,0.1,0.3,0.3V17.3z"/>
	<path class="st1" d="M17.3,1c0-0.6-0.4-1-1-1h-13c-1,0-1.7,0.4-1.7,0.8s0.8,0.8,1.7,0.8h13.9V1z"/>
</g>
</svg>
