<svg id="法规资料" xmlns="http://www.w3.org/2000/svg" xmlns:xlink="http://www.w3.org/1999/xlink" viewBox="0 0 19.75 19.64"><defs><style>.cls-1{fill:none;}.cls-2{clip-path:url(#clip-path);}.cls-3,.cls-4{fill:#fff;}.cls-4{opacity:0.45;}</style><clipPath id="clip-path" transform="translate(-116.11 -282.94)"><rect class="cls-1" x="115.98" y="282.76" width="20" height="20"/></clipPath></defs><title>法规资料-白</title><g class="cls-2"><path class="cls-3" d="M127.69,298.8a4.43,4.43,0,0,1,4.44-4.43V283.8a.92.92,0,0,0-1-.86H117.07a.91.91,0,0,0-1,.86v17.93a.91.91,0,0,0,1,.85h12.85A4.52,4.52,0,0,1,127.69,298.8ZM119,285.51H129.7v1H119Zm0,4.34H129.7v1H119Zm5.5,5.33H119v-1h5.5Z" transform="translate(-116.11 -282.94)"/><path class="cls-4" d="M132,295a3.82,3.82,0,1,0,3.81,3.82A3.82,3.82,0,0,0,132,295Zm1,5.09a.34.34,0,0,1-.34.34H131a.34.34,0,0,1-.34-.34v-.24a.81.81,0,0,1,.61-.77h0a.48.48,0,0,0,.46-.46.46.46,0,0,0-.23-.38h0a.7.7,0,0,1-.3-.55.68.68,0,0,1,1.36,0,.69.69,0,0,1-.26.52h0a.46.46,0,0,0-.28.41.46.46,0,0,0,.43.45v0a.8.8,0,0,1,.64.77Z" transform="translate(-116.11 -282.94)"/></g></svg>