<svg id="项目立项" xmlns="http://www.w3.org/2000/svg" xmlns:xlink="http://www.w3.org/1999/xlink" viewBox="0 0 17 19.82"><defs><style>.cls-1{fill:none;}.cls-2{clip-path:url(#clip-path);}.cls-3,.cls-4,.cls-5{fill:#fff;}.cls-3{opacity:0.5;}.cls-5{opacity:0.8;}</style><clipPath id="clip-path" transform="translate(-66.27 -202.22)"><rect class="cls-1" x="64.87" y="202.13" width="20" height="20"/></clipPath></defs><title>项目立项-白</title><g class="cls-2"><path class="cls-3" d="M79.87,202.22H82.3a1,1,0,0,1,1,1v2.43" transform="translate(-66.27 -202.22)"/><path class="cls-4" d="M83.27,205.62H80.84a1,1,0,0,1-1-1v-2.43H67.26a1,1,0,0,0-1,1v17.84a1,1,0,0,0,1,1h15a1,1,0,0,0,1-1V205.62ZM69.56,217.7h-1v-1h1Zm0-4.64h-1v-1h1Zm0-4.43h-1v-1h1Zm11.61,9.09h-10v-1h10Zm0-4.64h-10v-1h10Zm0-4.44h-10v-1h10Z" transform="translate(-66.27 -202.22)"/><path class="cls-5" d="M83.27,205.62H80.84a1,1,0,0,1-1-1v-2.43" transform="translate(-66.27 -202.22)"/></g></svg>