<svg id="项目立项" xmlns="http://www.w3.org/2000/svg" xmlns:xlink="http://www.w3.org/1999/xlink" viewBox="0 0 17 19.82"><defs><style>.cls-1{fill:none;}.cls-2{clip-path:url(#clip-path);}.cls-3,.cls-4,.cls-5{fill:#3f78ff;}.cls-3{opacity:0.5;}.cls-5{opacity:0.8;}</style><clipPath id="clip-path" transform="translate(-44.13 -202.22)"><rect class="cls-1" x="42.63" y="202.06" width="20" height="20"/></clipPath></defs><title>项目立项-蓝</title><g class="cls-2"><path class="cls-3" d="M57.72,202.22h2.43a1,1,0,0,1,1,1v2.43" transform="translate(-44.13 -202.22)"/><path class="cls-4" d="M61.13,205.62H58.7a1,1,0,0,1-1-1v-2.43H45.12a1,1,0,0,0-1,1v17.84a1,1,0,0,0,1,1h15a1,1,0,0,0,1-1V205.62ZM47.42,217.7h-1v-1h1Zm0-4.64h-1v-1h1Zm0-4.43h-1v-1h1ZM59,217.72H49v-1H59Zm0-4.64H49v-1H59Zm0-4.44H49v-1H59Z" transform="translate(-44.13 -202.22)"/><path class="cls-5" d="M61.13,205.62H58.7a1,1,0,0,1-1-1v-2.43" transform="translate(-44.13 -202.22)"/></g></svg>