<svg id="消息" xmlns="http://www.w3.org/2000/svg" xmlns:xlink="http://www.w3.org/1999/xlink" viewBox="0 0 17.49 19.88"><defs><style>.cls-1{fill:none;}.cls-2{clip-path:url(#clip-path);}.cls-3{opacity:0.45;}.cls-4{fill:#3f78ff;}</style><clipPath id="clip-path" transform="translate(-362.29 -243.15)"><rect class="cls-1" x="361.03" y="243.09" width="20" height="20"/></clipPath></defs><title>消息-蓝</title><g class="cls-2"><g class="cls-3"><path class="cls-4" d="M373,261.18a1.85,1.85,0,0,1-3.7,0Z" transform="translate(-362.29 -243.15)"/></g><path class="cls-4" d="M378.61,258.62h-.49V253a7.1,7.1,0,0,0-7.1-7.1h0a7.1,7.1,0,0,0-7.1,7.1v5.67h-.47a1.17,1.17,0,0,0,0,2.33h15.16a1.17,1.17,0,1,0,0-2.33Zm-6-11.28a.51.51,0,0,1,.63-.33,5.66,5.66,0,0,1,3.4,3.37.5.5,0,0,1-.29.65.39.39,0,0,1-.18,0,.51.51,0,0,1-.48-.32A4.63,4.63,0,0,0,373,248,.51.51,0,0,1,372.62,247.34Z" transform="translate(-362.29 -243.15)"/><g class="cls-3"><path class="cls-4" d="M371,245.45h0a.73.73,0,0,1-.75-.71v-.88a.73.73,0,0,1,.75-.71h0a.73.73,0,0,1,.75.71v.88A.73.73,0,0,1,371,245.45Z" transform="translate(-362.29 -243.15)"/></g></g></svg>