<?xml version="1.0" encoding="utf-8"?>
<!-- Generator: Adobe Illustrator 22.0.0, SVG Export Plug-In . SVG Version: 6.00 Build 0)  -->
<svg version="1.1" id="图层_1" xmlns="http://www.w3.org/2000/svg" xmlns:xlink="http://www.w3.org/1999/xlink" x="0px" y="0px"
	 viewBox="0 0 20 20" style="enable-background:new 0 0 20 20;" xml:space="preserve">
<style type="text/css">
	.st0{opacity:0.45;}
	.st1{fill:#606D85;}
</style>
<g>
	<g class="st0">
		<path class="st1" d="M12,18.1c0,1-0.8,1.9-1.9,1.9s-1.9-0.8-1.9-1.9H12z"/>
	</g>
	<g>
		<path class="st1" d="M17.6,15.5h-0.5V9.9c0-3.9-3.2-7.1-7.1-7.1h0c-3.9,0-7.1,3.2-7.1,7.1v5.7H2.4c-0.6,0-1.2,0.5-1.2,1.2
			c0,0.6,0.5,1.2,1.2,1.2h15.2c0.6,0,1.2-0.5,1.2-1.2C18.7,16.1,18.2,15.5,17.6,15.5z M11.6,4.3c0.1-0.3,0.4-0.4,0.6-0.3
			c0.1,0,2.4,0.7,3.4,3.4c0.1,0.3,0,0.6-0.3,0.7c-0.1,0-0.1,0-0.2,0c-0.2,0-0.4-0.1-0.5-0.3c-0.8-2.2-2.7-2.7-2.7-2.8
			C11.7,4.8,11.5,4.5,11.6,4.3z"/>
	</g>
	<g class="st0">
		<path class="st1" d="M9.9,2.4L9.9,2.4C9.5,2.4,9.2,2,9.2,1.7V0.8c0-0.4,0.3-0.7,0.7-0.7h0c0.4,0,0.7,0.3,0.7,0.7v0.9
			C10.7,2,10.3,2.4,9.9,2.4z"/>
	</g>
</g>
</svg>
