<svg id="图层_2" data-name="图层 2" xmlns="http://www.w3.org/2000/svg" viewBox="0 0 17.23 19.89"><defs><style>.cls-1{fill:#a8c6ff;}.cls-2{fill:#3f78ff;}.cls-3{fill:none;stroke:#fff;stroke-linecap:round;stroke-linejoin:round;}</style></defs><title>消息</title><path class="cls-1" d="M382.33,215.52a1.71,1.71,0,1,1-3.41,0" transform="translate(-372.02 -197.33)"/><path class="cls-2" d="M8.6,2.68h0a7,7,0,0,1,7,7v6.77a.23.23,0,0,1-.23.23H1.83a.23.23,0,0,1-.23-.23V9.68a7,7,0,0,1,7-7Z"/><rect class="cls-2" y="15.27" width="17.23" height="2.29" rx="1.14" ry="1.14"/><rect class="cls-1" x="7.85" width="1.38" height="2.25" rx="0.69" ry="0.69"/><path class="cls-3" d="M382.68,201.63a5.16,5.16,0,0,1,3,3" transform="translate(-372.02 -197.33)"/></svg>