<svg id="图层_2" data-name="图层 2" xmlns="http://www.w3.org/2000/svg" xmlns:xlink="http://www.w3.org/1999/xlink" viewBox="0 0 17.23 19.89"><defs><style>.cls-1{fill:none;}.cls-2{clip-path:url(#clip-path);}.cls-3{opacity:0.45;}.cls-4{fill:#fff;}</style><clipPath id="clip-path" transform="translate(-371.86 -197.33)"><rect class="cls-1" x="370.47" y="197.28" width="20" height="20"/></clipPath></defs><title>消息2</title><g class="cls-2"><g class="cls-3"><path class="cls-4" d="M382.17,215.52a1.71,1.71,0,1,1-3.41,0Z" transform="translate(-371.86 -197.33)"/></g><path class="cls-4" d="M387.94,212.6h-.48V207a7,7,0,0,0-7-7h0a7,7,0,0,0-7,7v5.58H373a1.15,1.15,0,0,0,0,2.29h14.94a1.15,1.15,0,1,0,0-2.29ZM382,201.49a.5.5,0,0,1,.62-.33,5.57,5.57,0,0,1,3.35,3.32.5.5,0,0,1-.29.65.52.52,0,0,1-.18,0,.48.48,0,0,1-.46-.32,4.64,4.64,0,0,0-2.71-2.73A.5.5,0,0,1,382,201.49Z" transform="translate(-371.86 -197.33)"/><g class="cls-3"><rect class="cls-4" x="7.85" width="1.38" height="2.25" rx="0.69" ry="0.69"/></g></g></svg>