<svg id="图层_2" data-name="图层 2" xmlns="http://www.w3.org/2000/svg" xmlns:xlink="http://www.w3.org/1999/xlink" viewBox="0 0 20.01 18.18"><defs><style>.cls-1{fill:none;}.cls-2{clip-path:url(#clip-path);}.cls-3,.cls-4{fill:#fff;}.cls-3{opacity:0.45;}</style><clipPath id="clip-path" transform="translate(-204.79 -199.15)"><rect class="cls-1" x="204.79" y="198.24" width="20" height="20"/></clipPath></defs><title>项目库-白</title><g class="cls-2"><path class="cls-3" d="M224.8,202.22a.87.87,0,0,0-.87-.87H213.28V200a.87.87,0,0,0-.88-.87h-6.74a.87.87,0,0,0-.87.87v3.15h20Z" transform="translate(-204.79 -199.15)"/><path class="cls-4" d="M223.8,204.1h-19v12.23a1,1,0,0,0,1,1h18a1,1,0,0,0,1-1V205.1A1,1,0,0,0,223.8,204.1ZM222,208.23H207.6v-1H222Z" transform="translate(-204.79 -199.15)"/></g></svg>