<?xml version="1.0" encoding="utf-8"?>
<!-- Generator: Adobe Illustrator 22.0.0, SVG Export Plug-In . SVG Version: 6.00 Build 0)  -->
<svg version="1.1" id="图层_1" xmlns="http://www.w3.org/2000/svg" xmlns:xlink="http://www.w3.org/1999/xlink" x="0px" y="0px"
	 viewBox="0 0 20 20" style="enable-background:new 0 0 20 20;" xml:space="preserve">
<style type="text/css">
	.st0{opacity:0.5;fill:#606D85;}
	.st1{fill:#606D85;}
	.st2{opacity:0.8;fill:#606D85;}
</style>
<g>
	<path class="st0" d="M15.4,0.2h2.4c0.5,0,1,0.4,1,1v2.4"/>
	<path class="st1" d="M18.8,3.6h-2.4c-0.5,0-1-0.4-1-1V0.2l-12.6,0c-0.5,0-1,0.4-1,1V19c0,0.5,0.4,1,1,1h15c0.5,0,1-0.4,1-1
		L18.8,3.6L18.8,3.6z M5.1,15.7h-1v-1h1V15.7z M5.1,11h-1v-1h1V11z M5.1,6.6h-1v-1h1V6.6z M16.7,15.7h-10v-1h10V15.7z M16.7,11h-10
		v-1h10V11z M16.7,6.6h-10v-1h10V6.6z"/>
	<path class="st2" d="M18.8,3.6h-2.4c-0.5,0-1-0.4-1-1V0.2"/>
</g>
</svg>
