<?xml version="1.0" encoding="utf-8"?>
<!-- Generator: Adobe Illustrator 22.0.0, SVG Export Plug-In . SVG Version: 6.00 Build 0)  -->
<svg version="1.1" id="图层_1" xmlns="http://www.w3.org/2000/svg" xmlns:xlink="http://www.w3.org/1999/xlink" x="0px" y="0px"
	 viewBox="0 0 20 20" style="enable-background:new 0 0 20 20;" xml:space="preserve">
<style type="text/css">
	.st0{clip-path:url(#SVGID_2_);}
	.st1{opacity:0.5;fill:#3F78FF;}
	.st2{fill:#3F78FF;}
	.st3{opacity:0.8;fill:#3F78FF;}
</style>
<g>
	<defs>
		<rect id="SVGID_1_" y="0" width="20" height="20"/>
	</defs>
	<clipPath id="SVGID_2_">
		<use xlink:href="#SVGID_1_"  style="overflow:visible;"/>
	</clipPath>
	<g class="st0">
		<path class="st1" d="M15,0.3h2.4c0.5,0,1,0.4,1,1v2.4"/>
		<path class="st2" d="M18.3,3.6h-2.4c-0.5,0-1-0.4-1-1V0.3l-12.3,0c-0.5,0-1,0.4-1,1v17.4c0,0.5,0.4,1,1,1h14.7c0.5,0,1-0.4,1-1
			L18.3,3.6L18.3,3.6z M4.9,15.4h-1v-1h1V15.4z M4.9,10.9h-1v-1h1V10.9z M4.9,6.6h-1v-1h1V6.6z M16.3,15.5H6.5v-1h9.8V15.5z
			 M16.3,10.9H6.5v-1h9.8V10.9z M16.3,6.6H6.5v-1h9.8V6.6z"/>
		<path class="st3" d="M18.3,3.6h-2.4c-0.5,0-1-0.4-1-1V0.3"/>
	</g>
</g>
</svg>
