<svg id="图层_2" data-name="图层 2" xmlns="http://www.w3.org/2000/svg" viewBox="0 0 20.01 18.18"><defs><style>.cls-1{fill:#a8c6ff;}.cls-2{fill:#3f78ff;}.cls-3{fill:none;stroke:#fff;stroke-miterlimit:10;}</style></defs><title>项目库</title><path class="cls-1" d="M225.27,202.22a.87.87,0,0,0-.87-.87H213.75V200a.87.87,0,0,0-.88-.87h-6.74a.87.87,0,0,0-.87.87v3.15h20Z" transform="translate(-205.26 -199.15)"/><path class="cls-2" d="M0,4.95H19a1,1,0,0,1,1,1V17.18a1,1,0,0,1-1,1H1a1,1,0,0,1-1-1V4.95A0,0,0,0,1,0,4.95Z"/><line class="cls-3" x1="2.81" y1="8.59" x2="17.2" y2="8.59"/></svg>