<svg id="图层_2" data-name="图层 2" xmlns="http://www.w3.org/2000/svg" xmlns:xlink="http://www.w3.org/1999/xlink" viewBox="0 0 14.64 19.83"><defs><style>.cls-1{fill:none;}.cls-2{clip-path:url(#clip-path);}.cls-3{fill:#fff;}.cls-4{opacity:0.45;}</style><clipPath id="clip-path" transform="translate(-288.99 -197.38)"><rect class="cls-1" x="286.31" y="197.3" width="20" height="20"/></clipPath></defs><title>用户-白</title><g class="cls-2"><path class="cls-3" d="M296.31,197.38a5.58,5.58,0,1,0,5.57,5.57A5.57,5.57,0,0,0,296.31,197.38Zm2.08,8.37a2.34,2.34,0,0,1-4.17-.1.5.5,0,0,1,.23-.67.51.51,0,0,1,.67.24,1.34,1.34,0,0,0,2.39.05.5.5,0,0,1,.88.48Z" transform="translate(-288.99 -197.38)"/><path class="cls-3" d="M296.54,209.11h-.05a7.5,7.5,0,0,0-7.5,7.5v.6h14.64v-1A7.08,7.08,0,0,0,296.54,209.11Zm-.25,6.78-1.22-1.68.71-2.9h.08a.54.54,0,0,1-.54-.54v-.23a.54.54,0,0,1,.54-.54h.85a.55.55,0,0,1,.55.54v.23a.55.55,0,0,1-.55.54h.09l.71,2.9Z" transform="translate(-288.99 -197.38)"/><g class="cls-4"><path class="cls-3" d="M296.8,211.31h-.09a.55.55,0,0,0,.55-.54v-.23a.55.55,0,0,0-.55-.54h-.85a.54.54,0,0,0-.54.54v.23a.54.54,0,0,0,.54.54h-.08l-.71,2.9,1.22,1.68,1.22-1.68Z" transform="translate(-288.99 -197.38)"/></g></g></svg>