<svg id="图层_2" data-name="图层 2" xmlns="http://www.w3.org/2000/svg" viewBox="0 0 14.64 19.83"><defs><style>.cls-1{fill:#3f78ff;}.cls-2{fill:none;stroke:#fff;stroke-linecap:round;stroke-linejoin:round;}.cls-3{fill:#a8c6ff;}</style></defs><title>用户</title><circle class="cls-1" cx="7.32" cy="5.57" r="5.57"/><path class="cls-2" d="M297.66,205.51a1.84,1.84,0,0,1-3.28-.08" transform="translate(-288.71 -197.38)"/><path class="cls-1" d="M7.5,11.73h.06a7.09,7.09,0,0,1,7.09,7.09v1a0,0,0,0,1,0,0H0a0,0,0,0,1,0,0v-.6A7.5,7.5,0,0,1,7.5,11.73Z"/><path class="cls-3" d="M296.51,211.31h-.08a.54.54,0,0,0,.54-.54v-.23a.54.54,0,0,0-.54-.54h-.85a.54.54,0,0,0-.54.54v.23a.54.54,0,0,0,.54.54h-.09l-.71,2.9,1.22,1.68,1.22-1.68Z" transform="translate(-288.71 -197.38)"/></svg>