<?xml version="1.0" encoding="utf-8"?>
<!-- Generator: Adobe Illustrator 22.0.0, SVG Export Plug-In . SVG Version: 6.00 Build 0)  -->
<svg version="1.1" id="图层_1" xmlns="http://www.w3.org/2000/svg" xmlns:xlink="http://www.w3.org/1999/xlink" x="0px" y="0px"
	 viewBox="0 0 20 20" style="enable-background:new 0 0 20 20;" xml:space="preserve">
<style type="text/css">
	.st0{fill:#606D85;}
	.st1{opacity:0.45;}
</style>
<g>
	<g>
		<g>
			<path class="st0" d="M10,2.1c-2.5,0-4.6,2-4.6,4.6c0,2.5,2,4.6,4.6,4.6c2.5,0,4.6-2,4.6-4.6C14.6,4.2,12.5,2.1,10,2.1z M11.7,9
				c-0.3,0.6-1,1-1.7,1c-0.7,0-1.4-0.4-1.7-1.1c-0.1-0.2,0-0.4,0.2-0.5c0.2-0.1,0.4,0,0.5,0.2c0.2,0.4,0.6,0.6,1,0.6
				c0.4,0,0.8-0.2,1-0.6c0.1-0.2,0.4-0.3,0.6-0.2C11.7,8.6,11.8,8.8,11.7,9z"/>
		</g>
	</g>
	<g>
		<path class="st0" d="M10.2,11.8L10.2,11.8c-3.4,0-6.2,2.8-6.2,6.2v0.5h12v-0.8C16,14.4,13.4,11.8,10.2,11.8z M10,17.3l-1-1.4
			l0.6-2.4h0.1c-0.2,0-0.4-0.2-0.4-0.4v-0.2c0-0.2,0.2-0.4,0.4-0.4h0.7c0.2,0,0.4,0.2,0.4,0.4v0.2c0,0.2-0.2,0.4-0.4,0.4h0.1
			l0.6,2.4L10,17.3z"/>
	</g>
	<g class="st1">
		<path class="st0" d="M10.4,13.6L10.4,13.6c0.2,0,0.4-0.2,0.4-0.4v-0.2c0-0.2-0.2-0.4-0.4-0.4H9.6c-0.2,0-0.4,0.2-0.4,0.4v0.2
			c0,0.2,0.2,0.4,0.4,0.4H9.6L9,15.9l1,1.4l1-1.4L10.4,13.6z"/>
	</g>
</g>
</svg>
