<svg id="工作日志" xmlns="http://www.w3.org/2000/svg" xmlns:xlink="http://www.w3.org/1999/xlink" viewBox="0 0 16.35 19.41"><defs><style>.cls-1{fill:none;}.cls-2{clip-path:url(#clip-path);}.cls-3,.cls-4{fill:#fff;}.cls-4{opacity:0.5;}</style><clipPath id="clip-path" transform="translate(-440.2 -284.48)"><rect class="cls-1" x="438.69" y="284.48" width="19.37" height="19.37"/></clipPath></defs><title>工作日志-白</title><g class="cls-2"><path class="cls-3" d="M454.15,284.48H441.09a.92.92,0,0,0-.89.94v.5a.92.92,0,0,1,.77.92.93.93,0,0,1-.77.93v1.43a.93.93,0,0,1,.77.93.92.92,0,0,1-.77.92v1.44a.94.94,0,0,1,0,1.85v1.44a.94.94,0,0,1,0,1.85v1.44a.92.92,0,0,1,.77.92.93.93,0,0,1-.77.93v.5a.92.92,0,0,0,.89.94h13.06a.92.92,0,0,0,.88-.94v-16A.91.91,0,0,0,454.15,284.48Zm-7.52,13.46-1.57.82-.14-1.84,4-7.47,1.71,1Zm4.19-7.82-1.71-1,.55-1,1.71,1Z" transform="translate(-440.2 -284.48)"/><path class="cls-4" d="M440.22,301.59l13.95-.25.06-15.43h1.41a.94.94,0,0,1,.91,1v16.05a1,1,0,0,1-.91,1H441.12a1,1,0,0,1-.92-1v-1" transform="translate(-440.2 -284.48)"/></g></svg>