<?xml version="1.0" encoding="utf-8"?>
<!-- Generator: Adobe Illustrator 22.0.0, SVG Export Plug-In . SVG Version: 6.00 Build 0)  -->
<svg version="1.1" id="图层_1" xmlns="http://www.w3.org/2000/svg" xmlns:xlink="http://www.w3.org/1999/xlink" x="0px" y="0px"
	 viewBox="0 0 20 20" style="enable-background:new 0 0 20 20;" xml:space="preserve">
<style type="text/css">
	.st0{fill:#606D85;}
	.st1{opacity:0.5;fill:#606D85;}
</style>
<g>
	<path class="st0" d="M15.8,0.3H2.7c-0.5,0-0.9,0.4-0.9,0.9v0.5c0.4,0.1,0.8,0.4,0.8,0.9S2.3,3.5,1.8,3.6V5c0.4,0.1,0.8,0.4,0.8,0.9
		c0,0.5-0.3,0.9-0.8,0.9v1.4c0.4,0.1,0.8,0.4,0.8,0.9c0,0.5-0.3,0.9-0.8,0.9v1.4c0.4,0.1,0.8,0.4,0.8,0.9c0,0.5-0.3,0.9-0.8,0.9v1.4
		c0.4,0.1,0.8,0.4,0.8,0.9c0,0.5-0.3,0.9-0.8,0.9v0.5c0,0.5,0.4,0.9,0.9,0.9h13.1c0.5,0,0.9-0.4,0.9-0.9v-16
		C16.7,0.7,16.3,0.3,15.8,0.3z M8.3,13.8l-1.6,0.8l-0.1-1.8l4-7.5l1.7,1L8.3,13.8z M12.4,5.9l-1.7-1l0.6-1l1.7,1L12.4,5.9z"/>
	<path class="st1" d="M1.8,17.4l13.9-0.2l0.1-15.4h1.4c0.5,0,0.9,0.4,0.9,1v16c0,0.5-0.4,1-0.9,1H2.7c-0.5,0-0.9-0.4-0.9-1v-1"/>
</g>
</svg>
