<svg id="工作日志" xmlns="http://www.w3.org/2000/svg" xmlns:xlink="http://www.w3.org/1999/xlink" viewBox="0 0 16.35 19.41"><defs><style>.cls-1{fill:none;}.cls-2{clip-path:url(#clip-path);}.cls-3,.cls-4{fill:#3f78ff;}.cls-4{opacity:0.5;}</style><clipPath id="clip-path" transform="translate(-441.45 -243.72)"><rect class="cls-1" x="439.94" y="243.72" width="19.37" height="19.37"/></clipPath></defs><title>工作日志-蓝</title><g class="cls-2"><path class="cls-3" d="M455.4,243.72H442.34a.92.92,0,0,0-.89.94v.5a.92.92,0,0,1,.77.92.94.94,0,0,1-.77.93v1.43a.94.94,0,0,1,0,1.85v1.44a.94.94,0,0,1,0,1.85V255a.94.94,0,0,1,0,1.85v1.44a.92.92,0,0,1,.77.92.94.94,0,0,1-.77.93v.5a.91.91,0,0,0,.89.93H455.4a.91.91,0,0,0,.88-.93v-16A.91.91,0,0,0,455.4,243.72Zm-7.52,13.46-1.57.82-.14-1.84,4-7.47,1.71,1Zm4.19-7.82-1.71-1,.55-1,1.71,1Z" transform="translate(-441.45 -243.72)"/><path class="cls-4" d="M441.47,260.83l13.95-.25.06-15.44h1.41a1,1,0,0,1,.91,1v16.05a1,1,0,0,1-.91,1H442.37a1,1,0,0,1-.92-1v-1" transform="translate(-441.45 -243.72)"/></g></svg>