<?xml version="1.0" encoding="utf-8"?>
<!-- Generator: Adobe Illustrator 22.0.0, SVG Export Plug-In . SVG Version: 6.00 Build 0)  -->
<svg version="1.1" id="图层_1" xmlns="http://www.w3.org/2000/svg" xmlns:xlink="http://www.w3.org/1999/xlink" x="0px" y="0px"
	 viewBox="0 0 56 43" style="enable-background:new 0 0 56 43;" xml:space="preserve">
<style type="text/css">
	.st0{fill:#3F78FF;}
</style>
<path class="st0" d="M11.1,1.3h28.4c0.8,0,1.4,0.6,1.4,1.4v19.2c0.2-0.1,0.4-0.1,0.7-0.1c0.2,0,0.5,0,0.6,0.1V2.7
	c0-1.5-1.2-2.7-2.7-2.7H11.1C9.6,0,8.4,1.2,8.4,2.7V36c0,1.5,1.2,2.7,2.7,2.7h16.4c-0.1-0.4-0.2-0.9-0.2-1.3H11.1
	c-0.8,0-1.4-0.6-1.4-1.4V2.7C9.7,1.9,10.3,1.3,11.1,1.3z"/>
<path class="st0" d="M29.9,21.4h-15c-0.4,0-0.8-0.3-0.8-0.6s0.3-0.6,0.8-0.6h15c0.4,0,0.8,0.3,0.8,0.6S30.3,21.4,29.9,21.4z"/>
<path class="st0" d="M25.8,27.4H14.9c-0.5,0-0.9-0.3-0.9-0.6s0.4-0.6,0.9-0.6h10.8c0.5,0,0.9,0.3,0.9,0.6S26.2,27.4,25.8,27.4z"/>
<path class="st0" d="M25.8,33.4H14.9c-0.5,0-0.9-0.3-0.9-0.6s0.4-0.6,0.9-0.6h10.8c0.5,0,0.9,0.3,0.9,0.6S26.2,33.4,25.8,33.4z"/>
<path class="st0" d="M38.4,38.8c-4.7,0-8.5-3.8-8.5-8.5s3.8-8.5,8.5-8.5s8.5,3.8,8.5,8.5S43.1,38.8,38.4,38.8z M38.4,23.2
	c-3.9,0-7.1,3.2-7.1,7.1s3.2,7.1,7.1,7.1s7.1-3.2,7.1-7.1S42.3,23.2,38.4,23.2z"/>
<g>
	<path class="st0" d="M37.1,32.6L35,30.2c-0.2-0.3-0.2-0.7,0.1-0.9l0,0c0.3-0.2,0.7-0.2,0.9,0.1l2.1,2.4c0.2,0.3,0.2,0.7-0.1,0.9
		l0,0C37.8,32.9,37.4,32.9,37.1,32.6z"/>
	<path class="st0" d="M42.3,28.9L38,32.7c-0.3,0.2-0.7,0.2-0.9-0.1l0,0c-0.2-0.3-0.2-0.7,0.1-0.9l4.3-3.8c0.3-0.2,0.7-0.2,0.9,0.1
		l0,0C42.6,28.2,42.6,28.6,42.3,28.9z"/>
</g>
<g>
	<g>
		<path class="st0" d="M17.7,11.8c0,0.3,0.1,0.7,0.2,1.2c-0.6,0.4-1.2,0.9-1.9,1.5l-0.6-1c0.2-0.2,0.2-0.4,0.2-0.7V10H15V8.8h2v3.6
			L17.7,11.8z M16.2,6.1c0.4,0.5,0.7,1.1,1.1,1.7c-0.3,0.2-0.7,0.4-1.1,0.7c-0.3-0.6-0.7-1.2-1-1.7L16.2,6.1z M17.5,13.4h0.7V8.9
			h1.2v4.5h1V7.9h-2.7V6.7h6v1.2h-2.1v2.1h1.9v1.2h-1.9v2.3H24v1.2h-6.4V13.4z"/>
	</g>
	<g>
		<path class="st0" d="M27.5,7.3h2.4V5.9h1.3v1.4h2.5c-0.3-0.2-0.5-0.4-0.8-0.6l0.8-0.8c0.8,0.5,1.5,1,2.1,1.5l-0.8,0.9
			c-0.2-0.2-0.4-0.3-0.6-0.5l-0.2,2.3h1.3c0,1.3-0.1,2.1-0.1,2.6s-0.2,0.8-0.5,1.1c-0.3,0.3-0.7,0.4-1.2,0.4c-0.6,0-1,0-1.3,0
			c0-0.4-0.1-0.8-0.3-1.3c0.4,0.1,0.8,0.1,1.2,0.1c0.2,0,0.4-0.1,0.6-0.2c0.1-0.1,0.2-0.2,0.2-0.4c0-0.2,0-0.5,0.1-1h-3v3.6h-1.3
			v-3.6h-3v-1.1h3V8.4h-2.4V7.3z M33,8.4h-1.8v1.7h1.7L33,8.4z"/>
	</g>
</g>
<rect x="41" y="21.2" class="st0" width="1.3" height="2.2"/>
<rect x="31.4" y="31.8" transform="matrix(5.177909e-11 -1 1 5.177909e-11 -6.0287 70.1793)" class="st0" width="1.3" height="12.7"/>
</svg>
