<?xml version="1.0" encoding="utf-8"?>
<!-- Generator: Adobe Illustrator 22.0.0, SVG Export Plug-In . SVG Version: 6.00 Build 0)  -->
<svg version="1.1" id="图层_1" xmlns="http://www.w3.org/2000/svg" xmlns:xlink="http://www.w3.org/1999/xlink" x="0px" y="0px"
	 viewBox="0 0 500 500" style="enable-background:new 0 0 500 500;" xml:space="preserve">
<style type="text/css">
	.st0{fill:url(#SVGID_1_);}
	.st1{fill:url(#SVGID_2_);}
	.st2{fill:url(#SVGID_3_);}
	.st3{fill:url(#SVGID_4_);}
	.st4{fill:url(#SVGID_5_);}
	.st5{fill:url(#SVGID_6_);}
	.st6{fill:#89B5FF;}
</style>
<linearGradient id="SVGID_1_" gradientUnits="userSpaceOnUse" x1="71.8441" y1="200.0996" x2="71.8441" y2="293.4091">
	<stop  offset="0" style="stop-color:#87B4FF"/>
	<stop  offset="1" style="stop-color:#297BFF"/>
</linearGradient>
<path class="st0" d="M71.8,200.1c-4.7,0-9.2,0.7-13.4,2c1.8-0.3,3.7-0.5,5.6-0.5c19.3,0,34.9,15.6,34.9,34.9
	c0,12.5-6.5,23.4-16.4,29.6l-10.3-30.3c-0.3,0-4.9-0.1-8.4-0.1c-4.5,0-8.9-0.2-8.9-0.2l-12.5,28.2c-8-6.4-13.1-16.2-13.1-27.3
	c0-5.1,1.1-10,3.1-14.4c-4.5,7.2-7.1,15.6-7.1,24.7c0,25.8,20.9,46.7,46.7,46.7c25.8,0,46.7-20.9,46.7-46.7
	C118.5,221,97.6,200.1,71.8,200.1z"/>
<linearGradient id="SVGID_2_" gradientUnits="userSpaceOnUse" x1="166.7851" y1="218.4397" x2="166.7851" y2="276.8148">
	<stop  offset="0" style="stop-color:#87B4FF"/>
	<stop  offset="1" style="stop-color:#297BFF"/>
</linearGradient>
<path class="st1" d="M162.8,222.7l-2,13.3h29.8c1.1,0,2,0.4,2.8,1.2c0.8,0.8,1.2,1.7,1.2,2.8v36.8h-22.7v-4.1h6.6v-31.1
	c0-0.9-0.4-1.3-1.3-1.3h-17l-5.5,36.5h-16.3l8.4-54.1h-9v-4.3h58v4.3H162.8z"/>
<linearGradient id="SVGID_3_" gradientUnits="userSpaceOnUse" x1="237.6976" y1="216.7985" x2="237.6976" y2="276.8776">
	<stop  offset="0" style="stop-color:#87B4FF"/>
	<stop  offset="1" style="stop-color:#297BFF"/>
</linearGradient>
<path class="st2" d="M219.5,236h-12.2l3.3-18.4h12.1l-1.1,6.1h7.9v4.2h-8.6L219.5,236z M207.8,239.7h21.7v4.2h-3.7v8.8h3.7v4.4h-3.7
	v11.7l3.5-0.8v4.4l-19.3,4.5l-0.8-4.1l2.7-0.6v-15.1h-4.2v-4.4h4.2v-8.8h-4.2V239.7z M243.7,232h-12.4l3.6-15.2h12.8l-1.3,5.2h19.1
	c0.8,0,1.4,0.3,1.9,0.8c0.5,0.5,0.8,1.1,0.8,1.8c0,0.3,0,0.5-0.1,0.7l-6.3,24.5h-30.3v-4.7h18.2l4.6-16.9c0.1-0.4,0-0.7-0.3-1.1
	c-0.3-0.4-0.6-0.5-1-0.5h-7.9L243.7,232z M262.6,252.7c1.1,0,2,0.4,2.8,1.2c0.8,0.8,1.2,1.7,1.2,2.8v20.1h-35.2v-24.1H262.6z
	 M248.1,243.2h-11.8l-1.9-9.6h11.7L248.1,243.2z M253.1,258.4c0-0.9-0.4-1.3-1.3-1.3H245v15.6h8.2V258.4z"/>
<linearGradient id="SVGID_4_" gradientUnits="userSpaceOnUse" x1="307.2066" y1="218.4397" x2="307.2066" y2="276.6885">
	<stop  offset="0" style="stop-color:#87B4FF"/>
	<stop  offset="1" style="stop-color:#297BFF"/>
</linearGradient>
<path class="st3" d="M336.2,272.5v4.2h-58v-4.2H301v-7.3h-18.4V261H301v-6.4h-7l-0.9,5.1h-14.5l2.5-14.5h14.5l-0.9,5.1h6.3v-5.6h16
	v5.6h17.4v4.2H317v6.4h14.9v4.2H317v7.3H336.2z M332.4,243.2h-51.1v-24.8h47.1c1.1,0,2,0.4,2.8,1.2c0.8,0.8,1.2,1.7,1.2,2.8V243.2z
	 M315.9,224c0-0.9-0.4-1.3-1.3-1.3h-17v5.9h18.3V224z M315.9,233h-18.3v6h18.3V233z"/>
<linearGradient id="SVGID_5_" gradientUnits="userSpaceOnUse" x1="377.5769" y1="217.0511" x2="377.5769" y2="276.8148">
	<stop  offset="0" style="stop-color:#87B4FF"/>
	<stop  offset="1" style="stop-color:#297BFF"/>
</linearGradient>
<path class="st4" d="M366.1,260.8l-3.4,15.1h-13.8l3.8-15.1H366.1z M385.5,252.6v24.2h-19.7V272h4.1v-17.4l-16.5,2l-0.7-5.2l5.8-0.7
	l10.3-12.4l-18.2,2.5l-0.7-4.5l3-0.4l11.2-13.4l-12.6,0.4v-4.3l53.1-1.5v4.2l-21.9,0.6l-9.7,11.3l2.6-0.3l6.7-7.8h16.1l-19.4,23
	l10.8-1.3l-2.8-7.6h12.3l6.8,18.2h-12.3l-2.1-5.6L385.5,252.6z M406.3,275.9h-13.8l-3.4-15.1h13.5L406.3,275.9z"/>
<linearGradient id="SVGID_6_" gradientUnits="userSpaceOnUse" x1="447.2136" y1="216.7358" x2="447.2136" y2="277.0039">
	<stop  offset="0" style="stop-color:#87B4FF"/>
	<stop  offset="1" style="stop-color:#297BFF"/>
</linearGradient>
<path class="st5" d="M434.1,261.4h4.5v4.4h-20.6l7-22.2h-8.5l7.9-24.5h11.4l-6.8,20.1h2.4l2.3-6.8h8.6L434.1,261.4z M418.7,270.8h20
	v4h-20V270.8z M464.8,244.3l-22.7,2.8l-0.8-4.2l2.4-0.3l3.4-15.3h-6.3v-4.3h10.8v-6.4H467v6.4h10.8v4.3h-17.5l-2.9,13.6l6.4-0.7
	l-2.2-10.1h12.4l3.8,16.9h-12.5L464.8,244.3z M444.7,248.4h13l-2.3,28.7h-13.3L444.7,248.4z M473.8,272.5h3.8v4.5h-16.5v-28.7h12.6
	V272.5z"/>
<path class="st6" d="M53,195.9L53,195.9c0-0.1-1,5.9-5,6.3c0,0,5,1.4,5,6.5v0.1c0-5,5-6.5,5-6.5C54,201.8,53,195.9,53,195.9z"/>
</svg>
