<svg id="图层_1" data-name="图层 1" xmlns="http://www.w3.org/2000/svg" viewBox="0 0 93.31 98.03"><defs><style>.cls-1{fill:#fff;}</style></defs><title>logo</title><path class="cls-1" d="M62.84,200.1a46.63,46.63,0,0,0-13.44,2,34.41,34.41,0,0,1,5.6-.46,34.87,34.87,0,0,1,18.47,64.44L63.13,235.79c-.29,0-4.86-.07-8.37-.07-4.5,0-8.94-.18-8.94-.18l-12.55,28.2a34.84,34.84,0,0,1-10-41.68,46.65,46.65,0,1,0,39.57-22Z" transform="translate(-16.19 -195.38)"/><path class="cls-1" d="M43.49,195.38h0s-1,6.27-5.33,6.7c0,0,5.33,1.52,5.33,6.85V209c0-5.33,5.34-6.85,5.34-6.85C44.51,201.72,43.49,195.38,43.49,195.38Z" transform="translate(-16.19 -195.38)"/></svg>