<?xml version="1.0" encoding="utf-8"?>
<!-- Generator: Adobe Illustrator 22.0.0, SVG Export Plug-In . SVG Version: 6.00 Build 0)  -->
<svg version="1.1" id="图层_1" xmlns="http://www.w3.org/2000/svg" xmlns:xlink="http://www.w3.org/1999/xlink" x="0px" y="0px"
	 viewBox="0 0 454 98" style="enable-background:new 0 0 454 98;" xml:space="preserve">
<style type="text/css">
	.st0{fill:#FFFFFF;}
</style>
<path class="st0" d="M48.2,4.7c-4.6,0-9.1,0.7-13.4,2c1.8-0.3,3.7-0.5,5.6-0.5C59.5,6.3,75,21.8,75,40.9c0,12.4-6.5,23.3-16.3,29.4
	L48.5,40.2c-0.3,0-4.8-0.1-8.3-0.1c-4.5,0-8.9-0.2-8.9-0.2L18.8,68c-7.9-6.3-13-16.1-13-27.1c0-5.1,1.1-10,3.1-14.3
	c-4.4,7.1-7,15.5-7,24.5c0,25.6,20.7,46.3,46.3,46.3c25.6,0,46.3-20.7,46.3-46.3C94.5,25.5,73.8,4.7,48.2,4.7z"/>
<path class="st0" d="M138.5,27.2l-2,13.2h29.6c1.1,0,2,0.4,2.8,1.2c0.8,0.8,1.2,1.7,1.2,2.8v36.5h-22.6v-4.1h6.6V46
	c0-0.9-0.4-1.3-1.3-1.3h-16.9l-5.4,36.3h-16.2l8.4-53.7h-8.9V23h57.6v4.3H138.5z"/>
<path class="st0" d="M194.8,40.4h-12.1l3.3-18.2h12l-1.1,6.1h7.9v4.1h-8.6L194.8,40.4z M183.2,44.1h21.5v4.2h-3.7V57h3.7v4.3h-3.7
	V73l3.5-0.8v4.4L185.4,81l-0.8-4.1l2.7-0.6v-15h-4.2V57h4.2v-8.7h-4.2V44.1z M218.8,36.4h-12.3l3.5-15.1h12.7l-1.3,5.2h19
	c0.8,0,1.4,0.3,1.9,0.8c0.5,0.5,0.8,1.1,0.8,1.8c0,0.3,0,0.5-0.1,0.7l-6.3,24.4h-30.1v-4.6h18.1l4.6-16.8c0.1-0.4,0-0.7-0.3-1.1
	c-0.3-0.4-0.6-0.5-1-0.5h-7.9L218.8,36.4z M237.7,57c1.1,0,2,0.4,2.8,1.2c0.8,0.8,1.2,1.7,1.2,2.8v20h-35V57H237.7z M223.2,47.5
	h-11.7l-1.8-9.5h11.7L223.2,47.5z M228.2,62.6c0-0.9-0.4-1.3-1.3-1.3h-6.8v15.5h8.1V62.6z"/>
<path class="st0" d="M310.7,76.6v4.2h-57.6v-4.2h22.6v-7.2h-18.3v-4.2h18.3v-6.4h-7l-0.9,5.1h-14.4l2.5-14.4h14.4l-0.9,5.1h6.3V49
	h15.9v5.6h17.3v4.2h-17.3v6.4h14.8v4.2h-14.8v7.2H310.7z M306.9,47.6h-50.7V23H303c1.1,0,2,0.4,2.8,1.2c0.8,0.8,1.2,1.7,1.2,2.8
	V47.6z M290.6,28.5c0-0.9-0.4-1.3-1.3-1.3h-16.9v5.9h18.2V28.5z M290.6,37.4h-18.2v6h18.2V37.4z"/>
<path class="st0" d="M340.4,65L337,80h-13.7l3.7-15H340.4z M359.6,56.9v24.1H340v-4.8h4.1V58.8l-16.3,2l-0.7-5.1l5.8-0.7l10.3-12.3
	l-18.1,2.4l-0.7-4.4l3-0.4L338.5,27L326,27.3v-4.3l52.8-1.5v4.2L357,26.4l-9.6,11.2l2.5-0.3l6.7-7.7h16l-19.3,22.8l10.7-1.3
	l-2.8-7.5h12.2l6.7,18.1h-12.2l-2.1-5.6L359.6,56.9z M380.3,80h-13.7l-3.4-15h13.4L380.3,80z"/>
<path class="st0" d="M408,65.6h4.5V70H392l6.9-22.1h-8.4l7.9-24.3h11.3L403,43.6h2.4l2.3-6.7h8.6L408,65.6z M392.6,74.9h19.8v4
	h-19.8V74.9z M438.4,48.7l-22.6,2.8l-0.8-4.2l2.4-0.3l3.4-15.2h-6.3v-4.3h10.7v-6.3h15.3v6.3h10.8v4.3H434l-2.9,13.5l6.3-0.7
	l-2.2-10h12.4l3.8,16.8H439L438.4,48.7z M418.5,52.7h12.9l-2.3,28.5h-13.2L418.5,52.7z M447.3,76.7h3.8v4.4h-16.3V52.7h12.5V76.7z"
	/>
<path class="st0" d="M29.5,0.5L29.5,0.5c0-0.1-1,5.8-5,6.2c0,0,5,1.4,5,6.4v0.1c0-5,5-6.4,5-6.4C30.5,6.4,29.5,0.5,29.5,0.5z"/>
</svg>
