<svg id="图层_1" data-name="图层 1" xmlns="http://www.w3.org/2000/svg" viewBox="0 0 337.6 60"><defs><style>.cls-1{fill:#fff;}</style></defs><title>未标题-3</title><path class="cls-1" d="M25.1,27.2l-2,13.2H52.7a4.1,4.1,0,0,1,4,4V80.9H34.1V76.8h6.6V46c0-.9-.4-1.3-1.3-1.3H22.5L17.1,81H.9L9.3,27.3H.4V23H58v4.3H25.1Z" transform="translate(-0.4 -21.2)"/><path class="cls-1" d="M81.4,40.4H69.3l3.3-18.2h12l-1.1,6.1h7.9v4.1H82.8ZM69.8,44.1H91.3v4.2H87.6V57h3.7v4.3H87.6V73l3.5-.8v4.4L72,81l-.8-4.1,2.7-.6v-15H69.7V57h4.2V48.3H69.7V44.1Zm35.6-7.7H93.1l3.5-15.1h12.7L108,26.5h19a2.56,2.56,0,0,1,1.9.8,2.5,2.5,0,0,1,.8,1.8,1.48,1.48,0,0,1-.1.7l-6.3,24.4H93.2V49.6h18.1l4.6-16.8a1.19,1.19,0,0,0-.3-1.1,1.11,1.11,0,0,0-1-.5h-7.9ZM124.3,57a4.1,4.1,0,0,1,4,4V81h-35V57Zm-14.5-9.5H98.1L96.3,38H108Zm5,15.1c0-.9-.4-1.3-1.3-1.3h-6.8V76.8h8.1Z" transform="translate(-0.4 -21.2)"/><path class="cls-1" d="M197.3,76.6v4.2H139.7V76.6h22.6V69.4H144V65.2h18.3V58.8h-7l-.9,5.1H140l2.5-14.4h14.4l-.9,5.1h6.3V49h15.9v5.6h17.3v4.2H178.2v6.4H193v4.2H178.2v7.2Zm-3.8-29H142.8V23h46.8a4.1,4.1,0,0,1,4,4V47.6ZM177.2,28.5c0-.9-.4-1.3-1.3-1.3H159v5.9h18.2V28.5Zm0,8.9H159v6h18.2Z" transform="translate(-0.4 -21.2)"/><path class="cls-1" d="M227,65l-3.4,15H209.9l3.7-15Zm19.2-8.1V81H226.6V76.2h4.1V58.8l-16.3,2-.7-5.1,5.8-.7,10.3-12.3-18.1,2.4-.7-4.4,3-.4L225.1,27l-12.5.3V23l52.8-1.5v4.2l-21.8.7L234,37.6l2.5-.3,6.7-7.7h16L239.9,52.4l10.7-1.3-2.8-7.5H260l6.7,18.1H254.5l-2.1-5.6ZM266.9,80H253.2l-3.4-15h13.4Z" transform="translate(-0.4 -21.2)"/><path class="cls-1" d="M294.6,65.6h4.5V70H278.6l6.9-22.1h-8.4L285,23.6h11.3l-6.7,20H292l2.3-6.7h8.6Zm-15.4,9.3H299v4H279.2ZM325,48.7l-22.6,2.8-.8-4.2L304,47l3.4-15.2h-6.3V27.5h10.7V21.2h15.3v6.3h10.8v4.3H320.6l-2.9,13.5,6.3-.7-2.2-10h12.4L338,51.4H325.6Zm-19.9,4H318l-2.3,28.5H302.5Zm28.8,24h3.8v4.4H321.4V52.7h12.5Z" transform="translate(-0.4 -21.2)"/></svg>