<svg id="图层_1" data-name="图层 1" xmlns="http://www.w3.org/2000/svg" viewBox="0 0 92.6 96.9"><defs><style>.cls-1{fill:#fff;}</style></defs><title>未标题-2</title><path class="cls-1" d="M48.2,4.7a46.25,46.25,0,0,0-13.4,2,34.3,34.3,0,0,1,5.6-.5A34.69,34.69,0,0,1,58.7,70.3L48.5,40.2c-.3,0-4.8-.1-8.3-.1-4.5,0-8.9-.2-8.9-.2L18.8,68a34.59,34.59,0,0,1-13-27.1A34,34,0,0,1,8.9,26.6,46.27,46.27,0,1,0,48.2,4.7Z" transform="translate(-1.9 -0.5)"/><path class="cls-1" d="M29.5.5h0c0-.1-1,5.8-5,6.2,0,0,5,1.4,5,6.4v.1c0-5,5-6.4,5-6.4C30.5,6.4,29.5.5,29.5.5Z" transform="translate(-1.9 -0.5)"/></svg>